<svg width="31" height="32" viewBox="0 0 31 32" fill="none" xmlns="http://www.w3.org/2000/svg">
<rect opacity="0.5" x="29.654" y="30.0793" width="28.1584" height="28.1584" rx="3.28154" transform="rotate(-180 29.654 30.0793)" stroke="#BEBDBD" stroke-width="2.69204"/>
<path d="M14.7768 21.554C14.642 21.6492 14.5654 21.8077 14.5786 21.9716C14.5918 22.1355 14.6923 22.2808 14.8403 22.3522C14.9883 22.4235 15.1654 22.4077 15.3001 22.3152L22.5947 17.283C22.888 17.0822 23.0625 16.7518 23.0625 16.3976C23.0625 16.0435 22.8907 15.7105 22.6 15.5096L15.3239 10.4563C15.1891 10.3611 15.0121 10.3479 14.8641 10.4166C14.7134 10.488 14.613 10.6307 14.5998 10.7972C14.5865 10.9611 14.6606 11.1223 14.798 11.2148L22.0714 16.2681C22.1137 16.2972 22.1375 16.3448 22.1375 16.395C22.1375 16.4452 22.1137 16.4928 22.0714 16.5218L14.7768 21.554Z" fill="#BEBDBD"/>
<path d="M8.60692 21.554C8.47213 21.6492 8.39548 21.8077 8.4087 21.9716C8.42191 22.1355 8.52234 22.2808 8.67035 22.3522C8.81835 22.4235 8.99543 22.4077 9.13022 22.3152L16.4248 17.283C16.7181 17.0822 16.8926 16.7518 16.8926 16.3976C16.8926 16.0435 16.7208 15.7105 16.43 15.5096L9.15401 10.4563C9.01922 10.3611 8.84214 10.3479 8.69414 10.4166C8.54349 10.488 8.44306 10.6307 8.42984 10.7972C8.41663 10.9611 8.49063 11.1223 8.62806 11.2148L15.9015 16.2681C15.9437 16.2972 15.9675 16.3448 15.9675 16.395C15.9675 16.4452 15.9437 16.4928 15.9015 16.5218L8.60692 21.554Z" fill="#BEBDBD"/>
</svg>
