<svg width="58" height="57" viewBox="0 0 58 57" fill="none" xmlns="http://www.w3.org/2000/svg">
<rect opacity="0.5" x="2.8897" y="2.48443" width="51.9735" height="51.9735" rx="6.05693" stroke="#BEBDBD" stroke-width="4.96886"/>
<path d="M30.3502 18.2195C30.599 18.0439 30.7404 17.7512 30.716 17.4487C30.6916 17.1463 30.5063 16.878 30.2331 16.7463C29.9599 16.6146 29.6331 16.6438 29.3843 16.8146L15.9203 26.1027C15.3788 26.4735 15.0569 27.0833 15.0569 27.737C15.0569 28.3906 15.374 29.0053 15.9106 29.376L29.3404 38.7032C29.5892 38.8789 29.916 38.9033 30.1892 38.7764C30.4672 38.6447 30.6526 38.3813 30.677 38.074C30.7014 37.7715 30.5648 37.4739 30.3111 37.3032L16.8862 27.976C16.8082 27.9223 16.7643 27.8345 16.7643 27.7418C16.7643 27.6491 16.8082 27.5613 16.8862 27.5077L30.3502 18.2195Z" fill="#BEBDBD"/>
<path d="M41.7379 18.2195C41.9867 18.0439 42.1281 17.7512 42.1037 17.4487C42.0793 17.1463 41.894 16.878 41.6208 16.7463C41.3476 16.6146 41.0208 16.6438 40.772 16.8146L27.308 26.1027C26.7665 26.4735 26.4446 27.0833 26.4446 27.737C26.4446 28.3906 26.7617 29.0053 27.2983 29.376L40.7281 38.7032C40.9769 38.8789 41.3037 38.9033 41.5769 38.7764C41.8549 38.6447 42.0403 38.3813 42.0647 38.074C42.0891 37.7715 41.9525 37.4739 41.6988 37.3032L28.2739 27.976C28.1959 27.9223 28.152 27.8345 28.152 27.7418C28.152 27.6491 28.1959 27.5613 28.2739 27.5077L41.7379 18.2195Z" fill="#BEBDBD"/>
</svg>
