<svg width="45" height="45" viewBox="0 0 45 45" fill="none" xmlns="http://www.w3.org/2000/svg">
<path d="M22.1992 45C34.4595 45 44.3985 35.0574 44.3985 22.7925C44.3985 10.5276 34.4595 0.584961 22.1992 0.584961C9.93894 0.584961 0 10.5276 0 22.7925C0 35.0574 9.93894 45 22.1992 45Z" fill="#3377FF"/>
<path d="M19.1587 22.773C18.3401 22.773 17.5995 22.773 16.8394 22.773C16.8394 21.5056 16.8394 20.2383 16.8394 18.932C17.5995 18.932 18.3596 18.932 19.1587 18.932C19.1587 18.2106 19.1587 17.5282 19.1587 16.8652C19.1587 15.8514 19.2171 14.8375 19.529 13.8431C20.0357 12.2444 21.1662 11.367 22.8033 11.2695C24.382 11.172 25.9607 11.25 27.5589 11.25C27.5589 12.4978 27.5589 13.7457 27.5589 15.0325C27.4225 15.0325 27.2861 15.052 27.1496 15.052C26.3505 15.052 25.5514 15.052 24.7718 15.052C23.5634 15.0715 22.9982 15.6369 22.9787 16.8263C22.9593 17.5087 22.9787 18.2106 22.9787 18.932C24.46 18.932 25.9023 18.932 27.3835 18.932C27.1886 20.2188 26.9937 21.4666 26.7793 22.7535C25.5125 22.7535 24.2651 22.7535 22.9787 22.7535C22.9787 26.6334 22.9787 30.4549 22.9787 34.3154C21.6924 34.3154 20.445 34.3154 19.1782 34.3154C19.1587 30.4744 19.1587 26.6529 19.1587 22.773Z" fill="white"/>
</svg>
