<svg width="45" height="45" viewBox="0 0 45 45" fill="none" xmlns="http://www.w3.org/2000/svg">
<path d="M22.7984 44.4151C35.0587 44.4151 44.9976 34.4724 44.9976 22.2075C44.9976 9.94265 35.0587 0 22.7984 0C10.5381 0 0.599121 9.94265 0.599121 22.2075C0.599121 34.4724 10.5381 44.4151 22.7984 44.4151Z" fill="#3377FF"/>
<path d="M33.2065 22.1686C33.2065 23.8063 33.2844 25.4246 33.187 27.0624C32.9921 30.26 30.9651 32.4242 27.7882 32.5607C24.4359 32.7167 21.0641 32.6972 17.7313 32.5607C14.6908 32.4242 12.5664 30.26 12.4495 27.1989C12.3131 23.8648 12.3131 20.5308 12.4495 17.1967C12.5664 14.1161 14.7493 11.9519 17.8288 11.8349C21.1811 11.6985 24.5529 11.718 27.9052 11.8349C30.8676 11.9519 32.9921 14.1551 33.187 17.1382C33.2844 18.7955 33.187 20.4918 33.2065 22.1686ZM22.7598 30.6499C22.7598 30.6889 22.7598 30.7084 22.7598 30.7474C24.2215 30.7474 25.6638 30.7474 27.1255 30.7474C27.3399 30.7474 27.5738 30.7084 27.7882 30.6694C29.9126 30.3575 31.16 29.2266 31.238 27.0819C31.3549 23.8063 31.3549 20.5113 31.238 17.2357C31.16 15.169 29.7957 13.8042 27.7103 13.7457C24.4164 13.6287 21.1031 13.6482 17.7898 13.7652C15.8018 13.8432 14.418 15.1885 14.34 17.1772C14.2231 20.5308 14.2231 23.8843 14.34 27.2379C14.3985 29.1876 15.7043 30.4745 17.6339 30.6304C19.349 30.7669 21.0641 30.6499 22.7598 30.6499Z" fill="white"/>
<path d="M28.1974 22.227C28.178 25.2296 25.7222 27.6473 22.7597 27.6083C19.7582 27.5693 17.3804 25.1322 17.4194 22.1296C17.4584 19.1075 19.8557 16.7873 22.8961 16.8068C25.8586 16.8458 28.2169 19.2439 28.1974 22.227ZM22.8182 25.6976C24.7087 25.6976 26.3069 24.0988 26.3069 22.2075C26.3264 20.3163 24.7282 18.7175 22.8377 18.698C20.9081 18.6785 19.2905 20.3163 19.31 22.227C19.3294 24.1378 20.9081 25.6976 22.8182 25.6976Z" fill="white"/>
<path d="M29.6787 16.6118C29.6787 17.2942 29.094 17.8792 28.3924 17.8597C27.7297 17.8597 27.1255 17.2357 27.145 16.5728C27.1645 15.8709 27.7297 15.325 28.4313 15.3445C29.133 15.3445 29.6787 15.8904 29.6787 16.6118Z" fill="white"/>
</svg>
