<svg width="45" height="45" viewBox="0 0 45 45" fill="none" xmlns="http://www.w3.org/2000/svg">
<path d="M22.1992 45C34.4596 45 44.3985 35.0574 44.3985 22.7925C44.3985 10.5276 34.4596 0.584961 22.1992 0.584961C9.93894 0.584961 0 10.5276 0 22.7925C0 35.0574 9.93894 45 22.1992 45Z" fill="#3377FF"/>
<path d="M12.2202 30.2406C14.4616 30.2016 16.508 29.6947 18.4181 28.2519C16.4106 27.9594 15.0853 27.0235 14.3446 25.1323C14.9293 25.1323 15.4361 25.1323 15.9428 25.1323C14.0328 24.2354 12.9219 22.8706 12.7659 20.6869C13.3896 20.8623 13.9548 20.9988 14.6175 21.1743C12.649 18.7956 12.3177 17.0409 13.3312 15.4421C14.715 16.4559 16.0598 17.5478 17.5215 18.4447C19.0223 19.3611 20.7374 19.7315 22.4525 19.829C22.55 19.0101 22.5305 18.2302 22.7449 17.5088C23.6219 14.5647 27.1886 13.3753 29.6249 15.2471C30.2096 15.6955 30.6968 15.754 31.301 15.5006C31.8468 15.2666 32.412 15.0521 33.1331 14.9351C32.5874 15.6565 32.0612 16.3974 31.4959 17.1383C32.1586 16.9629 32.8408 16.7679 33.5229 16.5924C33.5619 16.6314 33.5814 16.6509 33.6204 16.6899C33.0746 17.2553 32.5679 17.8403 31.9832 18.3472C31.6129 18.6786 31.457 18.9906 31.457 19.478C31.3205 24.9568 28.0462 29.6557 23.1152 31.352C19.6265 32.5413 16.2157 32.3073 12.9024 30.6305C12.649 30.5136 12.4346 30.3771 12.2202 30.2406Z" fill="white"/>
</svg>
