<svg width="46" height="45" viewBox="0 0 46 45" fill="none" xmlns="http://www.w3.org/2000/svg">
<path d="M22.9663 45C35.2266 45 45.1656 35.0574 45.1656 22.7925C45.1656 10.5276 35.2266 0.584961 22.9663 0.584961C10.706 0.584961 0.76709 10.5276 0.76709 22.7925C0.76709 35.0574 10.706 45 22.9663 45Z" fill="#3377FF"/>
<path d="M23.0247 16.0074C25.5974 16.1439 28.17 16.2414 30.7427 16.4169C32.6918 16.5534 33.5688 17.4308 33.8417 19.3805C34.251 22.3831 34.251 25.4052 33.8417 28.4273C33.5688 30.416 32.7113 31.2544 30.7038 31.4299C26.1041 31.8393 21.5044 31.8003 16.8853 31.5664C16.0862 31.5274 15.3066 31.4494 14.527 31.3129C13.2796 31.0984 12.461 30.3185 12.2466 29.0902C11.6424 25.6977 11.6424 22.2856 12.2271 18.8931C12.5 17.3528 13.4355 16.5729 15.0727 16.4559C17.0802 16.2999 19.0682 16.2414 21.0757 16.1439C21.7188 16.1244 22.362 16.1439 23.0052 16.1439C23.0247 16.0659 23.0247 16.0464 23.0247 16.0074ZM26.5329 23.9039C24.5839 22.773 22.7323 21.7202 20.8028 20.6088C20.8028 22.8705 20.8028 24.9763 20.8028 27.199C22.7323 26.1071 24.5839 25.0347 26.5329 23.9039Z" fill="white"/>
</svg>
