<svg width="55" height="55" viewBox="0 0 55 55" fill="none" xmlns="http://www.w3.org/2000/svg">
<path d="M24.6981 23.4269C24.6333 23.4658 24.5684 23.5047 24.5165 23.5307C24.4127 23.5825 24.3349 23.6344 24.2571 23.6863C22.5189 24.75 21.4811 26.1509 21.079 27.954C20.9882 28.395 21.0012 28.7064 21.1439 28.888C21.2866 29.0566 21.5719 29.1474 22.013 29.1474C23.6863 29.1474 25.3597 29.1474 27.02 29.1474C28.9658 29.1474 30.9116 29.1474 32.8573 29.1474C32.8962 29.1474 33.0649 29.1474 33.1038 29.1474C33.1946 29.1474 33.2983 29.1474 33.4021 29.1344C33.5708 29.1085 33.7264 29.0177 33.8302 28.875C33.934 28.7323 33.9859 28.5507 33.9469 28.395C33.5448 26.1769 32.4292 24.6073 30.5224 23.5825C30.4446 23.5436 30.3797 23.4917 30.3278 23.4399C30.3149 23.4269 30.2889 23.4139 30.263 23.388C30.1981 23.3361 30.1592 23.2712 30.1462 23.1934C30.1333 23.1156 30.1592 23.0377 30.1981 22.9729C31.6509 21.0401 31.0932 19.0035 29.9517 17.9139C29.2771 17.2653 28.3821 16.9021 27.4481 16.9021C26.6958 16.9021 25.9693 17.1356 25.3467 17.5767C24.6462 18.0825 24.1663 18.7571 23.9587 19.5743C23.6474 20.7288 23.9068 21.8054 24.763 22.9858C24.8149 23.0507 24.8278 23.1415 24.8149 23.2193C24.8149 23.3101 24.763 23.388 24.6981 23.4269ZM27.487 18.3679C28.1097 18.3679 28.6804 18.6144 29.0955 19.0425C29.5236 19.4705 29.7571 20.0542 29.7441 20.6639C29.7311 21.8962 28.7193 22.895 27.487 22.908H27.4741C26.8774 22.908 26.3066 22.6745 25.8785 22.2335C25.4505 21.8054 25.204 21.2347 25.217 20.625C25.217 19.3538 26.2158 18.3679 27.487 18.3679ZM27.0071 24.2571C27.1498 24.2441 27.2925 24.2441 27.4351 24.2441C29.5625 24.2441 31.5861 25.5672 32.2476 27.3833C32.2866 27.4741 32.2736 27.5778 32.2087 27.6557C32.1568 27.7335 32.066 27.7854 31.9623 27.7854H23.0507C22.9599 27.7854 22.8821 27.7465 22.8302 27.6816C22.7783 27.6167 22.7524 27.5259 22.7653 27.4481C23.0118 25.9953 25.1132 24.4257 27.0071 24.2571Z" fill="#00BCFF"/>
<path d="M19.9634 32.7016C19.9116 32.7016 19.8726 32.7016 19.8208 32.7016C19.717 32.7016 19.6262 32.7016 19.5613 32.7146C19.1981 32.7665 18.9906 32.987 18.9776 33.3502C18.9646 33.5708 19.0165 33.7524 19.1333 33.8561C19.25 33.9858 19.4575 34.0377 19.73 34.0377C20.8974 34.0377 22.0649 34.0377 23.2323 34.0377H27.5C27.513 34.0377 27.5259 34.0377 27.5259 34.0377H31.4953C32.546 34.0377 33.921 34.0377 35.309 34.0377C35.7759 34.0377 35.9835 33.8432 35.9965 33.4151C36.0094 32.9741 35.8149 32.7665 35.3608 32.7146C35.2571 32.7016 35.1403 32.7016 35.0366 32.7016H28.6026C25.7748 32.7016 22.934 32.7016 20.1061 32.7016C20.0672 32.7016 20.0153 32.7016 19.9634 32.7016Z" fill="#00BCFF"/>
<path d="M19.7818 37.9811C20.9363 37.9811 22.0908 37.9811 23.2453 37.9811H32.7925C33.0259 37.9811 33.2724 37.9811 33.5059 37.9811C33.7394 37.9811 33.9859 37.9811 34.2193 37.9811C34.6604 37.9811 35.0236 37.9811 35.3479 37.9682C35.5814 37.9682 35.75 37.9033 35.8538 37.7866C35.9576 37.6698 36.0094 37.5012 36.0094 37.2677C35.9965 36.9434 35.8927 36.6321 35.1663 36.6321C33.5837 36.6321 32.0012 36.6321 30.4316 36.6321C27.5908 36.6321 24.75 36.6321 21.9092 36.6321H19.7818C19.691 36.6321 19.6132 36.6321 19.5354 36.645C19.1981 36.6969 19.0165 36.8915 18.9906 37.2158C18.9776 37.4493 19.0165 37.6309 19.1333 37.7476C19.2889 37.9422 19.5613 37.9682 19.7818 37.9811Z" fill="#00BCFF"/>
<path d="M38.6038 15.7866C38.6038 21.3644 38.6038 26.9552 38.6038 32.533C38.6038 32.9222 38.941 33.2335 39.3302 33.2075C39.6804 33.1816 39.9528 32.8833 39.9528 32.533C39.9528 29.8868 39.9528 27.5649 39.9528 27.5649C39.9528 27.5519 39.9528 27.5389 39.9528 27.5259V24.0495C39.9528 21.2476 39.9528 18.4458 39.9528 15.6439C39.9528 13.5554 38.513 12.0896 36.4375 12.0896C33.3373 12.0896 30.3149 12.0767 27.4611 12.0767C24.4387 12.0767 21.4811 12.0767 18.6403 12.0896C16.4481 12.0896 15.0342 13.5295 15.0342 15.7347C15.0342 23.5566 15.0342 31.3785 15.0342 39.2005C15.0342 41.4705 16.4351 42.8844 18.7052 42.8844C21.4163 42.8844 24.1274 42.8844 26.8384 42.8844C29.9906 42.8844 33.1427 42.8844 36.3078 42.8844C38.487 42.8844 39.9399 41.4186 39.9399 39.2524C39.9399 38.6167 39.9399 37.6439 39.9399 36.5283C39.9399 36.1781 39.6675 35.8797 39.3172 35.8538C38.9281 35.8278 38.5908 36.1262 38.5908 36.5283C38.5908 37.4104 38.5908 38.3054 38.5908 39.1875C38.5908 40.7052 37.7606 41.5483 36.2689 41.5483C33.7524 41.5483 31.2358 41.5483 28.7193 41.5483C25.3726 41.5483 22.0259 41.5483 18.6792 41.5483C17.5637 41.5483 16.7854 41.0424 16.5 40.1215C16.4351 39.9009 16.3962 39.6415 16.3962 39.3172C16.3962 36.1002 16.3962 32.8314 16.3962 29.6663V27.5519C16.3962 27.5389 16.3962 27.513 16.3962 27.5V24.0625C16.3962 21.3125 16.3962 18.5625 16.3962 15.8125C16.3962 14.217 17.1745 13.4387 18.783 13.4387C21.8184 13.4387 24.8538 13.4387 27.8892 13.4387C30.691 13.4387 33.48 13.4387 36.2818 13.4387C37.7736 13.4387 38.6038 14.2818 38.6038 15.7866Z" fill="#00BCFF"/>
<path d="M27.5 0C12.3361 0 0 12.3361 0 27.5C0 42.6639 12.3361 55 27.5 55C42.6639 55 55 42.6639 55 27.5C55 12.3361 42.6639 0 27.5 0ZM27.5 53.7028C13.0495 53.7028 1.29717 41.9505 1.29717 27.5C1.29717 13.0495 13.0495 1.29717 27.5 1.29717C41.9505 1.29717 53.7028 13.0495 53.7028 27.5C53.7028 41.9505 41.9505 53.7028 27.5 53.7028Z" fill="#00BCFF"/>
</svg>
