<svg width="14" height="17" viewBox="0 0 14 17" fill="none" xmlns="http://www.w3.org/2000/svg">
<path d="M13.2149 5.498C13.0191 5.498 12.8478 5.65256 12.8478 5.8292V15.7212C12.8478 15.7433 12.8234 15.7653 12.7989 15.7653H0.783106C0.758634 15.7653 0.734162 15.7433 0.734162 15.7212V0.70657C0.734162 0.68449 0.758634 0.662409 0.783106 0.662409H8.1492C8.17367 0.662409 8.17367 0.662409 8.17367 0.68449L12.3095 4.72519C12.3095 4.72519 12.3339 4.74727 12.3095 4.76935C12.285 4.79143 12.285 4.79143 12.2605 4.79143H8.73653C8.71206 4.79143 8.68759 4.76935 8.68759 4.74727V1.65602C8.68759 1.47938 8.51628 1.32482 8.32051 1.32482C8.12473 1.32482 7.95342 1.47938 7.95342 1.65602V4.74727C7.95342 5.14471 8.29603 5.45384 8.73653 5.45384H12.285C12.6031 5.45384 12.8723 5.29928 12.9947 5.03431C13.117 4.76935 13.0681 4.4823 12.8478 4.28358L8.71206 0.220803C8.56523 0.0883213 8.34498 0 8.1492 0H0.783106C0.342609 0 0 0.309124 0 0.70657V15.7212C0 16.1186 0.342609 16.4278 0.783106 16.4278H12.8234C13.2639 16.4278 13.6065 16.1186 13.6065 15.7212V5.8292C13.582 5.63048 13.4352 5.498 13.2149 5.498Z" fill="#3377FF"/>
</svg>
