<svg width="16" height="15" viewBox="0 0 16 15" fill="none" xmlns="http://www.w3.org/2000/svg">
<path d="M15.0001 0.281305C14.9767 0.0732565 14.8476 0 14.5806 0C9.86617 0 5.15171 0 0.440193 0C0.410856 0 0.381519 0 0.352182 0C0.211364 0 0.102818 0.0615355 0.0412099 0.184606C-0.0262652 0.313538 -0.0057293 0.433678 0.079348 0.553819C0.651419 1.34792 1.21762 2.14495 1.78676 2.94198C2.8693 4.454 3.95183 5.96601 5.03143 7.48095C5.08424 7.55421 5.11357 7.65677 5.11357 7.74761C5.11944 10.0244 5.11651 12.2983 5.11651 14.5751C5.11651 14.8388 5.17812 14.9209 5.42455 15C5.45682 14.9941 5.50082 14.9883 5.53309 14.9853C5.6035 14.9414 5.67978 14.9033 5.73552 14.8447C7.07622 13.5144 8.41692 12.1811 9.75175 10.842C9.82216 10.7716 9.8779 10.6486 9.88083 10.5489C9.88964 9.60246 9.88377 8.65599 9.8867 7.70951C9.8867 7.63919 9.91897 7.55714 9.96004 7.49853C10.0833 7.31979 10.2094 7.1469 10.3356 6.97109C10.4324 6.8363 10.4177 6.65462 10.3033 6.53741C10.1566 6.38504 9.90724 6.40555 9.78402 6.5755C9.6168 6.80406 9.45251 7.03555 9.2941 7.26998C9.23542 7.35495 9.21195 7.47802 9.21195 7.58644C9.20608 8.48896 9.20902 9.39148 9.20608 10.2969C9.20608 10.3673 9.17968 10.4522 9.13274 10.4991C8.44332 11.1936 7.75097 11.8793 7.05862 12.5708C6.68604 12.943 6.31346 13.321 5.91447 13.6872C5.86167 13.6638 5.8558 13.6609 5.80593 13.6374C5.80593 11.6361 5.80593 9.63469 5.80886 7.6304C5.80886 7.46337 5.76192 7.32272 5.66511 7.185C4.13079 5.05763 2.6082 2.9244 1.08267 0.7941C1.06214 0.767728 1.04747 0.735495 1.01813 0.688611H14.0056C13.9 0.840985 13.8032 0.981637 13.7005 1.12229C12.7207 2.48779 11.7408 3.85622 10.758 5.22172C10.6319 5.39754 10.7023 5.64661 10.9018 5.73159C11.0484 5.79312 11.2186 5.74624 11.3095 5.61731C12.0899 4.52725 12.8732 3.43719 13.6536 2.34714C14.0731 1.76109 14.4955 1.17796 14.9092 0.588982C14.9679 0.501074 15.0119 0.378004 15.0001 0.281305Z" fill="#514F4F"/>
</svg>
