<svg width="13" height="15" viewBox="0 0 13 15" fill="none" xmlns="http://www.w3.org/2000/svg">
<path d="M11.4366 8.57289C11.5317 8.70768 11.6903 8.78433 11.8542 8.77111C12.018 8.7579 12.1634 8.65747 12.2348 8.50946C12.3061 8.36146 12.2903 8.18438 12.1978 8.04959L7.16558 0.755051C6.96472 0.461684 6.63435 0.28725 6.2802 0.28725C5.92604 0.28725 5.59303 0.459041 5.39216 0.749766L0.338848 8.0258C0.243702 8.16059 0.230488 8.33767 0.299205 8.48567C0.370564 8.63632 0.513283 8.73675 0.679789 8.74997C0.843652 8.76318 1.00487 8.68918 1.09737 8.55175L6.15069 1.27836C6.17976 1.23607 6.22734 1.21228 6.27755 1.21228C6.32777 1.21228 6.37534 1.23607 6.40441 1.27836L11.4366 8.57289Z" fill="#3377FF"/>
<path d="M11.4366 14.7431C11.5317 14.8778 11.6903 14.9545 11.8542 14.9413C12.018 14.9281 12.1634 14.8276 12.2348 14.6796C12.3061 14.5316 12.2903 14.3545 12.1978 14.2198L7.16558 6.92522C6.96472 6.63185 6.63435 6.45742 6.2802 6.45742C5.92604 6.45742 5.59303 6.62921 5.39216 6.91993L0.338848 14.196C0.243702 14.3308 0.230488 14.5078 0.299205 14.6558C0.370564 14.8065 0.513283 14.9069 0.679789 14.9201C0.843652 14.9333 1.00487 14.8593 1.09737 14.7219L6.15069 7.44852C6.17976 7.40623 6.22734 7.38245 6.27755 7.38245C6.32777 7.38245 6.37534 7.40623 6.40441 7.44852L11.4366 14.7431Z" fill="#3377FF"/>
</svg>
