<svg id="Capa_1" data-name="Capa 1" xmlns="http://www.w3.org/2000/svg" viewBox="0 0 70.52 42.39"><defs><style>.cls-1{fill:#37f;}.cls-2{fill:#fff;}</style></defs><title>go</title><path class="cls-1" d="M49.33,42.39H0V19.83A19.88,19.88,0,0,1,19.92,0h30A20.55,20.55,0,0,1,70.52,20.5v.73A21.12,21.12,0,0,1,49.33,42.39Z"/><path class="cls-2" d="M49.87,6.59A14.45,14.45,0,0,0,35.56,21.16a14.31,14.31,0,1,0,28.61,0A14.45,14.45,0,0,0,49.87,6.59Zm0,22.62a8.05,8.05,0,1,1,7.88-8A8,8,0,0,1,49.87,29.21Z"/><path class="cls-2" d="M33.15,21.16a1.85,1.85,0,0,0-.06-.6,1.94,1.94,0,0,0-1.47-1.46.23.23,0,0,1-.2-.07H22.33s-1.81.47-1.81,1.87v3.39h7.09a7.64,7.64,0,0,1-7.09,5.06c-4.21,0-7.69-3.73-7.69-8.26s3.41-8.25,7.69-8.25a8.93,8.93,0,0,1,5.95,2,.87.87,0,0,0,1.27-.07c.74-.8,1.6-1.86,2.41-2.79a.85.85,0,0,0,0-1.2c-2.48-2.86-6.35-4-10.3-4-7.35,0-13.37,6.52-13.37,14.57s5.95,14.57,13.37,14.57h.2a12.33,12.33,0,0,0,3.48-.53C27.54,34.34,33.69,31,33.15,21.16Z"/></svg>