<svg width="100" height="85" viewBox="0 0 100 85" fill="none" xmlns="http://www.w3.org/2000/svg">
<path d="M80.3859 1.00005C78.4008 1.00005 83.4539 1.00005 80.3859 1.00005V1.00005Z" fill="white"/>
<path d="M98.8195 60.6876C98.0976 55.4907 95.8031 51.0913 91.9359 47.5667C91.4203 47.1036 91.2656 46.6662 91.2656 45.9973C91.2914 34.42 91.2914 22.8426 91.2656 11.2653C91.2656 5.09071 87.1664 1.00005 80.9531 1.00005C80.7211 1.00005 80.5148 1.00005 80.3859 1.00005H80.3602C74.6883 1.00005 69.2742 1.00005 63.6023 1.00005C62.1844 1.00005 61.3078 1.77187 61.282 2.92961C61.282 4.08734 62.1586 4.83344 63.5766 4.85916C63.8602 4.85916 64.1695 4.85916 64.4531 4.85916C73.2445 4.85916 72.2391 4.85916 81.0563 4.85916C85.0523 4.85916 87.4242 7.22609 87.4242 11.2396C87.4242 21.9164 87.4242 32.5933 87.4242 43.2702C87.4242 43.5789 87.4242 43.8876 87.4242 44.2993C87.0891 44.1707 86.857 44.0677 86.625 43.9648C74.0953 38.1762 59.632 45.174 56.4609 58.5523C56.2547 59.4785 55.868 59.6586 54.9914 59.6586C40.1672 59.6328 25.343 59.6328 10.5188 59.6328C10.1578 59.6328 9.79688 59.6328 9.46172 59.6071C6.34219 59.4527 3.97031 57.0344 3.91875 53.9213C3.89297 53.1495 3.91875 52.3777 3.91875 51.6059C3.91875 38.0732 3.91875 24.5406 3.91875 10.9823C3.91875 7.30327 6.34219 4.88489 10.0031 4.83344C10.2867 4.83344 10.5961 4.83344 10.8797 4.83344C19.0008 4.83344 44.3953 4.83344 52.5164 4.83344C53.032 4.83344 53.5734 4.83344 54.0375 4.67907C54.9141 4.39607 55.4039 3.41843 55.1977 2.49224C54.9914 1.54033 54.1922 0.974325 52.9289 0.974325C44.3695 0.974325 18.5109 0.948598 9.92578 0.974325C4.89844 1.05151 1.21172 4.08734 0.154688 8.97555C0.128906 9.12991 0.0515625 9.28428 0 9.41292C0 24.6693 0 39.9256 0 55.1563C0.4125 56.2883 0.670312 57.5232 1.26328 58.5523C3.24844 62.0255 6.34219 63.5434 10.3383 63.5177C25.0852 63.4919 39.8578 63.5177 54.6047 63.5177C55.0172 63.5177 55.4039 63.5177 55.7906 63.5177C55.9195 64.7783 55.9711 65.8589 56.1516 66.9394C57.6984 76.4328 65.8711 84.0481 75.1523 84.8971C86.0578 85.9005 94.9781 79.1085 97.8656 70.3354C98.3812 68.7403 98.6391 67.0423 99.0258 65.3958C99.0258 64.1094 99.0258 62.823 99.0258 61.5367C98.9484 61.2537 98.8453 60.9706 98.8195 60.6876ZM77.3953 81.1409C67.65 81.1409 59.7094 73.1912 59.7094 63.4662C59.7094 53.6641 67.6758 45.74 77.4727 45.7657C87.218 45.8172 95.1328 53.7412 95.1328 63.4919C95.107 73.2169 87.1406 81.1409 77.3953 81.1409Z" fill="white"/>
<path d="M7.73438 32.2589C7.73438 42.2668 15.8812 50.3967 25.9102 50.3967C35.9648 50.3967 44.0859 42.2668 44.0859 32.2589C44.0859 22.3023 35.9648 14.1982 25.9617 14.1468C15.9586 14.0953 7.73438 22.2509 7.73438 32.2589ZM34.057 44.0163C29.3133 47.3608 22.5844 47.3866 17.8148 44.0677C17.1445 43.6046 17.093 43.1416 17.2992 42.4469C18.0984 39.797 20.4703 37.9446 23.332 37.8417C24.2086 37.816 25.0594 37.8417 25.9359 37.8417C25.9359 37.816 25.9359 37.7902 25.9359 37.7645C27.1734 37.8417 28.4625 37.7902 29.6742 38.0218C32.2523 38.5363 33.825 40.1829 34.5984 42.6527C34.7789 43.2445 34.5984 43.6304 34.057 44.0163ZM22.6875 29.8405C22.7133 29.4031 22.7133 28.94 22.7648 28.5027C22.9969 26.9076 24.2859 25.8013 25.8844 25.7756C27.5086 25.7756 28.8234 26.8561 29.0297 28.4512C29.1328 29.3259 29.1328 30.2521 29.0555 31.1526C28.875 32.8506 27.5086 34.0083 25.8328 33.9569C24.2086 33.9311 22.9195 32.7477 22.7391 31.0754C22.6875 30.6638 22.7391 30.2521 22.7391 29.8148C22.7133 29.8405 22.6875 29.8405 22.6875 29.8405ZM37.7695 40.08C36.532 37.4815 34.5984 35.6549 31.8914 34.6001C33.232 32.1559 33.2836 29.5832 32.6648 27.0619C31.8398 23.6916 28.6945 21.6592 25.1109 21.9679C21.9141 22.2252 19.207 24.9008 18.9234 28.1939C18.7172 30.355 18.6656 32.5161 19.9289 34.5229C16.3969 36.4782 15.675 37.1471 14.0766 39.9771C11.2406 36.684 9.97734 28.7085 15.2109 22.8169C20.3672 16.9768 29.3133 16.3593 35.2687 21.4791C41.4305 26.8046 41.3016 35.3204 37.7695 40.08Z" fill="white"/>
<path d="M83.4023 19.7296C83.4023 18.0831 82.7062 17.3884 81.0305 17.3884C70.8727 17.3884 60.7148 17.3884 50.5828 17.3884C48.9328 17.3884 48.2367 18.1088 48.2109 19.7553C48.1852 21.9679 48.2109 24.2062 48.2109 26.4187C48.2109 28.3483 48.8297 28.9657 50.7633 28.9657C55.7648 28.9657 60.7664 28.9657 65.7422 28.9657C70.8727 28.9657 76.0031 28.9657 81.1078 28.9657C82.732 28.9657 83.4023 28.2968 83.4023 26.676C83.4281 24.3605 83.4281 22.0451 83.4023 19.7296ZM79.4836 25.0552C70.357 25.0552 61.282 25.0552 52.1555 25.0552C52.1555 23.846 52.1555 22.6368 52.1555 21.3504C61.2562 21.3504 70.357 21.3504 79.4836 21.3504C79.4836 22.5854 79.4836 23.7945 79.4836 25.0552Z" fill="white"/>
<path d="M80.6437 38.0475C81.0047 38.0475 81.3656 38.0475 81.7008 38.0218C82.6547 37.9189 83.2992 37.2242 83.3766 36.3238C83.4539 35.3461 82.9125 34.5229 81.9586 34.3171C81.6234 34.2399 81.2625 34.2141 80.9016 34.2141C70.8469 34.2141 60.7922 34.2141 50.7375 34.2141C50.3508 34.2141 49.9641 34.2399 49.6031 34.3428C48.7523 34.5743 48.2109 35.3461 48.2367 36.2209C48.2625 37.1213 48.907 37.8932 49.8094 38.0218C50.1961 38.0733 50.5828 38.0733 50.9695 38.0733C55.8937 38.0733 60.818 38.0733 65.768 38.0733C70.718 38.0475 75.6937 38.0475 80.6437 38.0475Z" fill="white"/>
<path d="M50.2219 43.2959C49.0102 43.3216 48.2367 44.1449 48.2367 45.2255C48.2367 46.306 49.0359 47.0778 50.2477 47.1293C51.3047 47.1808 52.3617 47.1293 53.4445 47.1293C54.5016 47.1293 55.5586 47.155 56.6414 47.1293C57.8531 47.0778 58.6266 46.306 58.6266 45.2255C58.6266 44.1449 57.8273 43.3474 56.6414 43.3216C54.4758 43.2702 52.3359 43.2702 50.2219 43.2959Z" fill="white"/>
<path d="M86.9086 56.6742C85.5164 56.6484 84.1242 56.6484 82.7578 56.6742C82.1906 56.6999 81.9586 56.4683 81.8039 55.9795C81.4172 54.6932 81.0047 53.4068 80.5664 52.1204C80.025 50.5253 78.8648 49.6763 77.3438 49.702C75.8484 49.7278 74.7398 50.551 74.2242 52.1204C73.8117 53.3296 73.3992 54.5645 73.0641 55.7994C72.8578 56.5198 72.4969 56.7514 71.775 56.6999C70.5117 56.6484 69.2742 56.6742 68.0109 56.6742C66.3352 56.6999 65.1234 57.4974 64.6852 58.9382C64.2211 60.3532 64.7367 61.7167 66.1031 62.7201C67.1344 63.4919 68.1656 64.2638 69.2484 64.9584C69.8156 65.3186 69.893 65.7045 69.6609 66.3219C69.2227 67.4797 68.8617 68.6889 68.475 69.8981C67.9594 71.5703 68.3461 73.0111 69.5578 73.8601C70.8211 74.7605 72.2391 74.6834 73.6828 73.6543C74.9461 72.7538 76.1836 71.8533 77.4469 70.9272C78.143 71.416 78.7875 71.9048 79.432 72.3679C80.0766 72.831 80.7211 73.3198 81.3914 73.7829C82.732 74.6834 84.1758 74.6576 85.3359 73.7829C86.4703 72.9339 86.8828 71.5703 86.4188 70.0781C86.032 68.8175 85.6453 67.5569 85.1813 66.3219C84.9492 65.7045 85.0008 65.3443 85.5938 64.9841C86.7281 64.238 87.8109 63.4405 88.8938 62.6172C90.1828 61.6396 90.5953 60.2503 90.1055 58.861C89.6414 57.4974 88.507 56.6999 86.9086 56.6742ZM81.9328 62.9002C80.7211 63.7749 80.5406 64.3667 80.9789 65.7817C81.3399 66.9394 81.7266 68.0971 82.0875 69.2549C82.0875 69.2806 82.0617 69.3063 81.9844 69.435C80.9789 68.7146 79.9734 67.9685 78.968 67.2739C77.7047 66.3734 77.1117 66.3734 75.8484 67.2996C74.843 68.02 73.8375 68.7403 72.6258 69.6151C73.0899 68.1486 73.5023 66.9137 73.8891 65.7045C74.3273 64.3667 74.1211 63.7235 72.9609 62.8745C71.9555 62.1541 70.95 61.4337 69.9445 60.7134C69.9703 60.6362 69.9961 60.5847 69.9961 60.5076C71.1305 60.5076 72.2906 60.5076 73.425 60.5076C75.2297 60.5076 75.668 60.1731 76.2352 58.5008C76.5961 57.3688 76.9828 56.2625 77.4211 54.899C77.9109 56.3654 78.2977 57.5746 78.7102 58.7838C79.1484 60.0702 79.7156 60.4818 81.0563 60.5076C82.3195 60.5333 83.6086 60.5076 84.9492 60.7134C83.918 61.4595 82.9125 62.1798 81.9328 62.9002Z" fill="white"/>
</svg>
