<svg width="14" height="14" viewBox="0 0 14 14" fill="none" xmlns="http://www.w3.org/2000/svg">
<path d="M6.02576 8.12737C6.42271 7.72835 6.80821 7.34079 7.19466 6.95418C7.98951 6.15805 8.78531 5.36193 9.58111 4.56675C9.85401 4.2947 10.208 4.2651 10.4771 4.48752C10.73 4.69658 10.7815 5.06982 10.5916 5.33615C10.5496 5.39534 10.4981 5.44784 10.4475 5.49939C9.14981 6.79858 7.8521 8.09682 6.55439 9.39506C6.19847 9.75113 5.85401 9.75113 5.5 9.39697C4.83588 8.73449 4.1708 8.072 3.50954 7.4057C3.20897 7.1031 3.21947 6.68594 3.52672 6.43393C3.75573 6.24588 4.07538 6.23824 4.30821 6.42247C4.39695 6.49311 4.47615 6.57616 4.55725 6.65635C5.04294 7.14223 5.52863 7.62907 6.02576 8.12737Z" fill="#2ABA93"/>
<path d="M13.8874 5.79531C13.4962 3.69903 12.3807 2.09723 10.5677 0.98609C9.63359 0.413337 8.60973 0.100232 7.51527 0.0229101C7.47996 0.0200464 7.44466 0.0085913 7.40935 0H6.58969C6.32443 0.0353198 6.05821 0.0620483 5.79485 0.108823C4.20611 0.390427 2.87118 1.13692 1.79389 2.33302C0.778626 3.45943 0.204199 4.78822 0.0362595 6.29456C0.0248092 6.40147 0.0124046 6.50839 0 6.6153C0.0019084 6.89022 0.00381679 7.16133 0.00667939 7.43625C0.0400763 7.69208 0.0648855 7.95077 0.112595 8.20469C0.503817 10.301 1.61927 11.9028 3.43225 13.0139C4.36641 13.5867 5.39027 13.8998 6.48473 13.9771C6.52004 13.98 6.55534 13.9914 6.59065 14H7.41031C7.67557 13.9647 7.9418 13.938 8.20515 13.8912C9.22615 13.7108 10.1431 13.3366 10.9542 12.7753C11.2538 12.5672 11.3206 12.1519 11.0992 11.8617C10.8922 11.5906 10.5086 11.5314 10.2281 11.7252C9.30344 12.3638 8.18512 12.7352 6.98855 12.7256C3.82538 12.7027 1.26718 10.1358 1.27767 6.99427C1.28817 3.83458 3.87786 1.25147 7.01336 1.27438C10.1765 1.29729 12.7347 3.86418 12.7242 7.00573C12.7214 7.76749 12.5697 8.49489 12.2958 9.16119C12.1651 9.48098 12.3092 9.84659 12.624 9.98786L12.6269 9.98977C12.9552 10.1377 13.3426 9.985 13.4781 9.65089C13.7261 9.04091 13.8874 8.39179 13.9637 7.7064C13.9752 7.59948 13.9876 7.49257 14 7.38565C13.9981 7.11073 13.9962 6.83963 13.9933 6.56471C13.959 6.30697 13.9351 6.04923 13.8874 5.79531Z" fill="#2ABA93"/>
</svg>
