<svg width="18" height="13" viewBox="0 0 18 13" fill="none" xmlns="http://www.w3.org/2000/svg">
<path d="M16.9347 5.67464C16.7389 5.67464 16.5676 5.8292 16.5676 6.00585V9.29581H0.783108C0.758635 9.29581 0.734162 9.27373 0.734162 9.25165V0.70657C0.734162 0.68449 0.758635 0.662409 0.783108 0.662409H16.4942C16.5187 0.662409 16.5431 0.68449 16.5431 0.70657V4.63687C16.5431 4.81351 16.7144 4.96807 16.9102 4.96807C17.106 4.96807 17.2773 4.81351 17.2773 4.63687V0.70657C17.2773 0.309125 16.9347 0 16.4942 0H0.783108C0.34261 0 0 0.309125 0 0.70657V9.27373C0 9.67118 0.34261 9.9803 0.783108 9.9803H16.9347C17.1305 9.9803 17.3018 9.82574 17.3018 9.6491V6.00585C17.3018 5.8292 17.1305 5.67464 16.9347 5.67464Z" fill="#3377FF"/>
<path d="M7.29268 2.71588C7.17032 2.64964 7.02349 2.62756 6.90113 2.6938C6.77877 2.76004 6.70535 2.87044 6.70535 2.98084V6.9553C6.70535 7.08778 6.77877 7.19818 6.90113 7.24234C6.95007 7.26442 7.02349 7.28651 7.07243 7.28651C7.14585 7.28651 7.21926 7.26442 7.29268 7.22026L10.4006 5.23304C10.4985 5.16679 10.5475 5.07847 10.5475 4.96807C10.5475 4.85767 10.4985 4.76935 10.4006 4.70311L7.29268 2.71588ZM7.46398 6.31497V3.62117L9.56858 4.96807L7.46398 6.31497Z" fill="#3377FF"/>
<path d="M3.64634 11.3714H0.611802C0.416025 11.3714 0.244721 11.5259 0.244721 11.7026C0.244721 11.8792 0.416025 12.0338 0.611802 12.0338H3.64634C3.84212 12.0338 4.01342 11.8792 4.01342 11.7026C4.01342 11.5259 3.84212 11.3714 3.64634 11.3714Z" fill="#3377FF"/>
<path d="M16.69 11.3714H6.68088C6.4851 11.3714 6.3138 11.5259 6.3138 11.7026C6.3138 11.8792 6.4851 12.0338 6.68088 12.0338H16.6655C16.8613 12.0338 17.0326 11.8792 17.0326 11.7026C17.0326 11.5259 16.8857 11.3714 16.69 11.3714Z" fill="#3377FF"/>
<path d="M5.16361 10.9077C4.67417 10.9077 4.28261 11.261 4.28261 11.7026C4.28261 12.1442 4.67417 12.4975 5.16361 12.4975C5.65305 12.4975 6.0446 12.1442 6.0446 11.7026C6.0446 11.261 5.65305 10.9077 5.16361 10.9077ZM5.16361 11.8351C5.09019 11.8351 5.01678 11.7688 5.01678 11.7026C5.01678 11.6363 5.09019 11.5701 5.16361 11.5701C5.23703 11.5701 5.31044 11.6363 5.31044 11.7026C5.31044 11.7688 5.2615 11.8351 5.16361 11.8351Z" fill="#3377FF"/>
</svg>
