<svg width="19" height="19" viewBox="0 0 19 19" fill="none" xmlns="http://www.w3.org/2000/svg">
<path d="M15.2772 18.1094C15.1696 17.9275 14.9766 17.8162 14.765 17.8162C13.4808 17.8162 12.1928 17.8162 10.9086 17.8162C10.8418 17.8162 10.775 17.8162 10.6896 17.8162V8.32734H16.6245C16.6245 8.39784 16.6245 8.46464 16.6245 8.52773C16.6245 10.9547 16.6245 13.3853 16.6245 15.8123C16.6245 16.0683 16.7878 16.2947 17.0291 16.3764C17.4151 16.5062 17.8123 16.2205 17.8123 15.8123C17.8123 13.4187 17.8123 11.0289 17.8123 8.63534C17.8123 8.53515 17.8123 8.43866 17.8123 8.32734C17.8939 8.31249 17.9719 8.30136 18.0461 8.2828C18.5026 8.18261 18.7959 7.90429 18.948 7.4664C18.9666 7.41445 18.9814 7.36249 19 7.31054V4.56445C18.9852 4.51992 18.9703 4.47167 18.9555 4.42714C18.7959 3.90019 18.3505 3.56621 17.7937 3.56621C17.0699 3.5625 16.3462 3.56621 15.6224 3.56621C15.5556 3.56621 15.4888 3.56621 15.4034 3.56621C15.4071 3.49941 15.4034 3.44746 15.4108 3.3955C15.6261 1.75156 14.5274 0.293164 12.8832 0.0333984C12.8535 0.0296875 12.8275 0.0111328 12.7978 0.00371093H12.1297C11.8922 0.0667968 11.6472 0.107617 11.4208 0.196679C10.363 0.623437 9.72827 1.40273 9.53155 2.52715C9.52784 2.55312 9.5167 2.5791 9.4833 2.60508C9.46103 2.48633 9.43876 2.37129 9.40906 2.25254C9.11584 1.08359 8.15452 0.211523 6.96308 0.0333984C6.92967 0.0296875 6.89627 0.0111328 6.85915 0H6.19105C5.96093 0.0630859 5.72338 0.103906 5.49697 0.185547C4.19047 0.67539 3.39988 1.99277 3.58175 3.38066C3.58918 3.43632 3.59289 3.48828 3.60031 3.56621C3.52237 3.56621 3.45927 3.56621 3.39246 3.56621C2.68724 3.56621 1.98203 3.56621 1.27681 3.56621C0.627271 3.56621 0.226411 3.86308 0.0296933 4.48652C0.0259816 4.50136 0.00742333 4.51621 0 4.53105V7.35136C0.0482516 7.47011 0.0890799 7.59257 0.152178 7.7039C0.374878 8.09726 0.723774 8.29023 1.18773 8.32362C1.18773 8.39413 1.18773 8.46835 1.18773 8.53886C1.18773 11.374 1.18773 14.2092 1.18773 17.0443C1.18773 18.1019 1.65911 18.7105 2.68353 18.9777C2.69467 18.9814 2.70209 18.9926 2.70951 19H14.7724C15.229 19.0037 15.511 18.5027 15.2772 18.1094ZM8.29928 17.8088C8.23618 17.8125 8.17679 17.8162 8.11369 17.8162C6.42489 17.8162 4.73979 17.8162 3.05099 17.8162C2.61301 17.8162 2.37175 17.5861 2.37175 17.1631C2.37175 14.2685 2.37175 11.3777 2.37175 8.48319C2.37175 8.43495 2.37175 8.38671 2.37175 8.31991C4.3612 8.31991 6.32467 8.31991 8.29928 8.31991C8.29928 11.4853 8.29928 14.6396 8.29928 17.8088ZM8.30299 7.11757C5.93495 7.11757 3.57433 7.11757 1.19887 7.11757C1.19887 6.34199 1.19887 5.55898 1.19887 4.76484C3.55948 4.76484 5.9201 4.76484 8.30299 4.76484C8.30299 5.55527 8.30299 6.33085 8.30299 7.11757ZM8.3067 3.56621C8.23247 3.56621 8.17679 3.56621 8.12483 3.56621C7.08556 3.56621 6.0463 3.5625 5.00703 3.56992C4.84372 3.56992 4.79918 3.51425 4.77691 3.36582C4.57648 2.17461 5.42645 1.15781 6.59934 1.19121C7.49756 1.21719 8.25845 1.95566 8.3067 2.85371C8.31783 3.08379 8.3067 3.31386 8.3067 3.56621ZM17.7974 4.76484C17.7974 5.54414 17.7974 6.32343 17.7974 7.11757C15.4368 7.11757 13.0725 7.11757 10.6933 7.11757C10.6933 6.32714 10.6933 5.55156 10.6933 4.76484C13.0613 4.76484 15.422 4.76484 17.7974 4.76484ZM12.5603 1.19863C13.8074 1.26172 14.5163 2.50117 14.1563 3.5625C13.0094 3.5625 11.8625 3.5625 10.7119 3.5625C10.4558 2.0373 11.4653 1.14297 12.5603 1.19863Z" fill="#2ABA93"/>
</svg>
