<svg width="71" height="62" viewBox="0 0 71 62" fill="none" xmlns="http://www.w3.org/2000/svg">
<path d="M33.4127 1.2C34.3325 -0.4 36.6675 -0.4 37.6109 1.2L70.6775 58.3765C71.5973 59.9765 70.4416 62 68.5784 62H2.42163C0.558393 62 -0.597286 60 0.32254 58.3765L33.4127 1.2Z" fill="#FF4141"/>
<path d="M38.8137 40.8471H32.2099C31.7853 40.8471 31.4079 40.6824 31.1249 40.4C30.8183 40.0941 30.6768 39.7412 30.6768 39.3176L30.04 23.9294C30.04 23.5059 30.2051 23.1294 30.4881 22.8471C30.7947 22.5412 31.1721 22.4 31.573 22.4H39.4505C39.8751 22.4 40.2524 22.5647 40.5355 22.8471C40.8421 23.1529 40.9836 23.5294 40.9836 23.9294V23.9529L40.3468 39.3176C40.3468 39.7176 40.1817 40.0941 39.8987 40.4C39.592 40.6824 39.2147 40.8471 38.8137 40.8471ZM31.0542 23.9059L31.691 39.2941C31.691 39.4353 31.7381 39.5294 31.8325 39.6471C31.9268 39.7412 32.0448 39.7882 32.1863 39.7882H38.7901C38.9317 39.7882 39.026 39.7412 39.1439 39.6471C39.2383 39.5529 39.2854 39.4353 39.2854 39.2941V39.2706L39.9222 23.9059C39.9222 23.7647 39.8751 23.6706 39.7807 23.5529C39.6864 23.4588 39.5685 23.4118 39.4269 23.4118H31.5495C31.4079 23.4118 31.3136 23.4588 31.1957 23.5529C31.1249 23.6706 31.0778 23.7647 31.0542 23.9059Z" fill="white"/>
<path d="M38.8137 52.8706H32.2099C31.7853 52.8706 31.4079 52.7059 31.1249 52.4235C30.8183 52.1176 30.6768 51.7412 30.6768 51.3412V44.7529C30.6768 44.3294 30.8419 43.9529 31.1249 43.6706C31.4315 43.3647 31.8089 43.2235 32.2099 43.2235H38.8137C39.2383 43.2235 39.6156 43.3882 39.8987 43.6706C40.2053 43.9765 40.3468 44.3529 40.3468 44.7529V51.3412C40.3468 51.7647 40.1817 52.1412 39.8987 52.4235C39.592 52.7294 39.2147 52.8706 38.8137 52.8706ZM32.1863 44.2353C32.0448 44.2353 31.9504 44.2824 31.8325 44.3765C31.7381 44.4706 31.691 44.5882 31.691 44.7294V51.3176C31.691 51.4588 31.7381 51.5529 31.8325 51.6706C31.9268 51.7647 32.0448 51.8118 32.1863 51.8118H38.7901C38.9317 51.8118 39.026 51.7647 39.1439 51.6706C39.2383 51.5765 39.2854 51.4588 39.2854 51.3176V44.7294C39.2854 44.5882 39.2383 44.4941 39.1439 44.3765C39.0496 44.2824 38.9317 44.2353 38.7901 44.2353H32.1863Z" fill="white"/>
</svg>
