<svg width="25" height="27" viewBox="0 0 25 27" fill="none" xmlns="http://www.w3.org/2000/svg">
<path d="M10.8974 27C12.4828 27 13.7821 25.7276 13.7821 24.175L13.7821 20.4083C13.7821 20.2906 13.9366 19.7806 14.2857 19.2032C14.6291 18.6203 15.1385 17.9309 15.7166 17.2414C16.5865 16.2101 17.6339 15.1619 18.5897 14.4052L18.5897 15.3861C18.5897 15.7337 18.8759 16.0139 19.2308 16.0139L24.359 16.0139C24.3819 16.0139 24.399 16.0139 24.4219 16.0139C24.7482 15.9803 25 15.7112 25 15.3861L25 1.57505C25 1.22753 24.7138 0.947273 24.359 0.947273L19.2308 0.947273C18.8759 0.947273 18.5897 1.22753 18.5897 1.57505L18.5897 2.07391C18.2063 1.91696 17.8343 1.6255 17.4279 1.26676C16.8212 0.728671 16.1859 1.1368e-06 15.1728 1.04823e-06L5.1282 1.70101e-07C3.54281 3.15014e-08 2.24359 1.27237 2.24359 2.825C2.24359 3.32946 2.41529 3.79469 2.65568 4.20947C1.83723 4.70832 1.28205 5.58273 1.28205 6.59165C1.28205 7.16338 1.49954 7.66784 1.80288 8.11065C1.0989 8.62632 0.641023 9.43347 0.641023 10.3583C0.641023 10.93 0.858514 11.4345 1.16186 11.8773C0.457874 12.393 -7.00925e-07 13.2001 -7.81778e-07 14.125C-9.17513e-07 15.6776 1.29922 16.95 2.88461 16.95C2.90751 16.95 2.92468 16.95 2.94757 16.95C3.11928 16.9444 3.27953 16.8659 3.394 16.7426C3.50847 16.6193 3.57143 16.4567 3.55998 16.2886C3.55426 16.1204 3.47413 15.9635 3.34821 15.8514C3.2223 15.7393 3.05632 15.6776 2.88461 15.6888C1.98603 15.6888 1.28205 14.9994 1.28205 14.1194C1.28205 13.4299 1.71703 12.875 2.33516 12.6564C2.55265 12.578 2.70719 12.393 2.74725 12.1688C2.78732 11.9446 2.69574 11.7204 2.51831 11.5802C2.15201 11.2944 1.9288 10.8572 1.9288 10.3527C1.9288 9.66328 2.36378 9.10837 2.98191 8.88976C3.1994 8.81129 3.35394 8.62632 3.394 8.40212C3.43406 8.17791 3.34249 7.95371 3.16506 7.81358C2.79876 7.52772 2.57555 7.09051 2.57555 6.58605C2.57555 5.84056 3.08493 5.24642 3.78892 5.07826C4.02358 5.02221 4.20673 4.84845 4.26397 4.62425C4.3212 4.40004 4.24679 4.15902 4.06937 4.00208C3.74313 3.71622 3.53709 3.29583 3.53709 2.825C3.53709 1.94499 4.24107 1.25555 5.13965 1.25555L15.1728 1.25556C15.4304 1.25556 15.9283 1.6367 16.5636 2.19722C17.0845 2.65684 17.737 3.20054 18.584 3.38551L18.584 12.8526C17.2848 13.7046 15.8768 15.0666 14.7207 16.4455C14.1026 17.1742 13.5703 17.9084 13.1754 18.5755C12.7804 19.2369 12.4943 19.7974 12.4943 20.4083L12.4943 24.175C12.4943 25.055 11.7903 25.7444 10.8917 25.7444C9.99313 25.7444 9.28915 25.055 9.28915 24.175L9.28915 19.1528C9.28915 18.1999 9.61538 17.2134 10.0618 16.7762C10.2507 16.5968 10.3079 16.3222 10.2106 16.0868C10.1133 15.8514 9.87294 15.6944 9.61538 15.6944L5.44872 15.6944C5.27701 15.6944 5.11103 15.7561 4.99084 15.8738C4.87065 15.9915 4.80197 16.154 4.80197 16.3222C4.80197 16.4903 4.87065 16.6529 4.99084 16.7706C5.11103 16.8883 5.27701 16.9556 5.44872 16.95L8.46497 16.95C8.16163 17.6282 8.01282 18.3905 8.01282 19.1472L8.01282 24.175C8.01282 25.7276 9.31204 27 10.8974 27ZM23.7179 14.7584L19.8718 14.7584L19.8718 2.20283L23.718 2.20283L23.7179 14.7584Z" fill="#BEBDBD"/>
</svg>
