<svg width="25" height="27" viewBox="0 0 25 27" fill="none" xmlns="http://www.w3.org/2000/svg">
<path d="M14.1026 0C12.5172 0 11.2179 1.27237 11.2179 2.82499V6.59165C11.2179 6.70936 11.0634 7.21943 10.7143 7.79676C10.3709 8.3797 9.86149 9.06913 9.28342 9.75856C8.41346 10.7899 7.36607 11.8381 6.41026 12.5948V11.6139C6.41026 11.2663 6.12408 10.9861 5.76923 10.9861H0.641026C0.618132 10.9861 0.600962 10.9861 0.578068 10.9861C0.251832 11.0197 0 11.2888 0 11.6139V25.425C0 25.7725 0.286172 26.0527 0.641026 26.0527H5.76923C6.12408 26.0527 6.41026 25.7725 6.41026 25.425V24.9261C6.79373 25.083 7.16575 25.3745 7.57212 25.7332C8.1788 26.2713 8.8141 27 9.82715 27H19.8718C21.4572 27 22.7564 25.7276 22.7564 24.175C22.7564 23.6705 22.5847 23.2053 22.3443 22.7905C23.1628 22.2917 23.7179 21.4173 23.7179 20.4083C23.7179 19.8366 23.5005 19.3322 23.1971 18.8893C23.9011 18.3737 24.359 17.5665 24.359 16.6417C24.359 16.07 24.1415 15.5655 23.8381 15.1227C24.5421 14.607 25 13.7999 25 12.875C25 11.3224 23.7008 10.05 22.1154 10.05C22.0925 10.05 22.0753 10.05 22.0524 10.05C21.8807 10.0556 21.7205 10.1341 21.606 10.2574C21.4915 10.3807 21.4286 10.5433 21.44 10.7114C21.4457 10.8796 21.5259 11.0365 21.6518 11.1486C21.7777 11.2607 21.9437 11.3224 22.1154 11.3112C23.014 11.3112 23.7179 12.0006 23.7179 12.8806C23.7179 13.5701 23.283 14.125 22.6648 14.3436C22.4473 14.422 22.2928 14.607 22.2527 14.8312C22.2127 15.0554 22.3043 15.2796 22.4817 15.4198C22.848 15.7056 23.0712 16.1428 23.0712 16.6473C23.0712 17.3367 22.6362 17.8916 22.0181 18.1102C21.8006 18.1887 21.6461 18.3737 21.606 18.5979C21.5659 18.8221 21.6575 19.0463 21.8349 19.1864C22.2012 19.4723 22.4244 19.9095 22.4244 20.4139C22.4244 21.1594 21.9151 21.7536 21.2111 21.9217C20.9764 21.9778 20.7933 22.1515 20.736 22.3758C20.6788 22.6 20.7532 22.841 20.9306 22.9979C21.2569 23.2838 21.4629 23.7042 21.4629 24.175C21.4629 25.055 20.7589 25.7444 19.8603 25.7444H9.82715C9.5696 25.7444 9.07166 25.3633 8.43635 24.8028C7.91552 24.3432 7.26305 23.7995 6.41598 23.6145V14.1474C7.7152 13.2954 9.12317 11.9334 10.2793 10.5545C10.8974 9.82582 11.4297 9.09155 11.8246 8.42454C12.2196 7.76313 12.5057 7.20262 12.5057 6.59165V2.82499C12.5057 1.94499 13.2097 1.25555 14.1083 1.25555C15.0069 1.25555 15.7109 1.94499 15.7109 2.82499V7.84721C15.7109 8.80008 15.3846 9.78659 14.9382 10.2238C14.7493 10.4032 14.6921 10.6778 14.7894 10.9132C14.8867 11.1486 15.1271 11.3056 15.3846 11.3056H19.5513C19.723 11.3056 19.889 11.2439 20.0092 11.1262C20.1294 11.0085 20.198 10.846 20.198 10.6778C20.198 10.5097 20.1294 10.3471 20.0092 10.2294C19.889 10.1117 19.723 10.0444 19.5513 10.05H16.535C16.8384 9.37181 16.9872 8.60951 16.9872 7.85281V2.82499C16.9872 1.27237 15.688 0 14.1026 0ZM1.28205 12.2416H5.12821V24.7972H1.28205V12.2416Z" fill="#BEBDBD"/>
</svg>
