<svg width="30" height="28" viewBox="0 0 30 28" fill="none" xmlns="http://www.w3.org/2000/svg">
<path d="M9.49757 18.9449C9.48641 19.0439 9.47524 19.0879 9.48641 19.1209C9.75445 20.1989 9.48641 20.0229 10.5921 20.0229C15.1489 20.0339 19.7057 20.0229 24.2737 20.0229C24.4189 20.0229 24.5752 20.0229 24.7204 20.0339C25.1895 20.0889 25.5692 20.4849 25.5246 20.925C25.4799 21.398 25.2118 21.706 24.7316 21.783C24.5864 21.805 24.43 21.794 24.2848 21.794C19.3036 21.794 14.3113 21.794 9.33005 21.794C8.39188 21.794 8.17968 21.629 8.00098 20.749C6.86178 15.2929 5.72258 9.81485 4.60571 4.34781C4.5387 3.9958 4.37117 3.8638 4.05845 3.7538C2.95276 3.3688 1.85823 2.9728 0.752534 2.57679C0.138259 2.35679 -0.129788 1.89479 0.0600789 1.39978C0.249946 0.882777 0.741365 0.684775 1.34447 0.904777C2.72938 1.38878 4.10312 1.88379 5.48803 2.36779C5.92361 2.52179 6.13582 2.81879 6.22517 3.2478C6.4262 4.23781 6.62724 5.21681 6.83944 6.28382C7.07398 6.28382 7.30852 6.28382 7.55423 6.28382C14.3448 6.28382 21.1353 6.28382 27.9258 6.28382C29.2772 6.28382 29.5453 6.64683 29.132 7.93384C28.2832 10.6069 27.4121 13.2689 26.5968 15.9529C26.3734 16.7119 25.949 16.9979 25.1783 17.0859C20.0743 17.6579 14.9814 18.2629 9.88848 18.8679C9.76562 18.8789 9.64277 18.9119 9.49757 18.9449ZM9.062 17.1519C9.25186 17.1409 9.37472 17.1299 9.49757 17.1189C11.184 16.9209 12.8593 16.7229 14.5346 16.5249C17.8182 16.1399 21.113 15.7439 24.3965 15.3699C24.7539 15.3259 24.9215 15.2049 25.0331 14.8419C25.6921 12.7079 26.3845 10.5739 27.0547 8.45084C27.0882 8.34084 27.0882 8.21984 27.1105 8.07684C20.4652 8.07684 13.8645 8.07684 7.19684 8.07684C7.82228 11.1019 8.43655 14.0939 9.062 17.1519Z" fill="white"/>
<path d="M9.7992 25.127C9.78803 23.961 10.7485 23.026 11.9212 23.026C13.0716 23.037 14.0209 23.972 14.0098 25.105C13.9986 26.26 13.0828 27.184 11.9436 27.195C10.7485 27.206 9.81037 26.293 9.7992 25.127Z" fill="white"/>
<path d="M18.9575 25.05C18.9798 23.884 19.9291 22.993 21.1354 23.015C22.2634 23.037 23.2127 24.016 23.1904 25.127C23.1681 26.249 22.1964 27.173 21.0572 27.173C19.8733 27.162 18.9463 26.216 18.9575 25.05Z" fill="white"/>
</svg>
