<svg width="30" height="28" viewBox="0 0 30 28" fill="none" xmlns="http://www.w3.org/2000/svg">
<path d="M9.49757 18.9448C9.48641 19.0438 9.47524 19.0878 9.48641 19.1208C9.75445 20.1988 9.48641 20.0228 10.5921 20.0228C15.1489 20.0338 19.7057 20.0228 24.2737 20.0228C24.4189 20.0228 24.5752 20.0228 24.7204 20.0338C25.1895 20.0888 25.5692 20.4848 25.5246 20.9248C25.4799 21.3978 25.2118 21.7058 24.7316 21.7828C24.5864 21.8048 24.43 21.7938 24.2848 21.7938C19.3036 21.7938 14.3113 21.7938 9.33005 21.7938C8.39188 21.7938 8.17968 21.6288 8.00098 20.7488C6.86178 15.2928 5.72258 9.81473 4.60571 4.34769C4.5387 3.99568 4.37117 3.86368 4.05845 3.75368C2.95276 3.36868 1.85823 2.97267 0.752534 2.57667C0.138259 2.35667 -0.129788 1.89466 0.0600789 1.39966C0.249946 0.882655 0.741365 0.684653 1.34447 0.904655C2.72938 1.38866 4.10312 1.88366 5.48803 2.36767C5.92361 2.52167 6.13582 2.81867 6.22517 3.24768C6.4262 4.23768 6.62724 5.21669 6.83944 6.2837C7.07398 6.2837 7.30852 6.2837 7.55423 6.2837C14.3448 6.2837 21.1353 6.2837 27.9258 6.2837C29.2772 6.2837 29.5453 6.6467 29.132 7.93372C28.2832 10.6067 27.4121 13.2688 26.5968 15.9528C26.3734 16.7118 25.949 16.9978 25.1783 17.0858C20.0743 17.6578 14.9814 18.2628 9.88848 18.8678C9.76562 18.8788 9.64277 18.9118 9.49757 18.9448ZM9.062 17.1518C9.25186 17.1408 9.37472 17.1298 9.49757 17.1188C11.184 16.9208 12.8593 16.7228 14.5346 16.5248C17.8182 16.1398 21.113 15.7438 24.3965 15.3698C24.7539 15.3258 24.9215 15.2048 25.0331 14.8418C25.6921 12.7078 26.3845 10.5737 27.0547 8.45072C27.0882 8.34072 27.0882 8.21972 27.1105 8.07672C20.4652 8.07672 13.8645 8.07672 7.19684 8.07672C7.82228 11.1017 8.43655 14.0938 9.062 17.1518Z" fill="white"/>
<path d="M9.7992 25.1269C9.78803 23.9609 10.7485 23.0259 11.9212 23.0259C13.0716 23.0369 14.0209 23.9719 14.0098 25.1049C13.9986 26.2599 13.0828 27.1839 11.9436 27.1949C10.7485 27.2059 9.81037 26.2929 9.7992 25.1269Z" fill="white"/>
<path d="M18.9575 25.0499C18.9798 23.8839 19.9291 22.9929 21.1354 23.0149C22.2634 23.0369 23.2127 24.0159 23.1904 25.1269C23.1681 26.2489 22.1964 27.1729 21.0572 27.1729C19.8733 27.1619 18.9463 26.2159 18.9575 25.0499Z" fill="white"/>
</svg>
