<svg width="26" height="26" viewBox="0 0 26 26" fill="none" xmlns="http://www.w3.org/2000/svg">
<g clip-path="url(#clip0_417_22551)">
<path d="M25.7927 10.7635C25.066 6.8701 22.9943 3.89512 19.6272 1.83144C17.8922 0.767678 15.9906 0.186158 13.9579 0.0425503C13.8923 0.0372315 13.8267 0.0159564 13.7612 0H12.2388C11.7462 0.0655984 11.2517 0.11524 10.7626 0.202114C7.81187 0.725128 5.33256 2.11156 3.33174 4.33304C1.44612 6.42509 0.379252 8.89301 0.0673437 11.6907C0.0460773 11.8893 0.0230386 12.0878 0 12.2864C0.00354441 12.797 0.00708881 13.3005 0.0124054 13.8111C0.0744326 14.2863 0.12051 14.7667 0.20912 15.2383C0.935724 19.1317 3.00743 22.1066 6.37462 24.1703C8.1096 25.2341 10.0112 25.8156 12.0439 25.9592C12.1095 25.9645 12.175 25.9858 12.2406 26.0018H13.7629C14.2556 25.9362 14.7501 25.8865 15.2392 25.7997C17.1354 25.4646 18.8385 24.7696 20.3449 23.7271C20.9014 23.3406 21.0254 22.5694 20.6143 22.0304C20.2297 21.5269 19.5173 21.417 18.9963 21.7769C17.279 22.963 15.202 23.6526 12.9796 23.6349C7.10476 23.5924 2.35349 18.825 2.37298 12.9902C2.39247 7.12186 7.20224 2.32431 13.0257 2.36686C18.9006 2.40941 23.6518 7.17682 23.6323 13.0115C23.627 14.4263 23.3452 15.7773 22.8366 17.0148C22.5938 17.6087 22.8614 18.2878 23.4463 18.5502L23.4516 18.5537C24.0612 18.8285 24.7807 18.5448 25.0324 17.9243C25.4932 16.7914 25.7927 15.5858 25.9344 14.3129C25.9557 14.1143 25.9787 13.9157 26.0018 13.7172C25.9982 13.2065 25.9947 12.703 25.9894 12.1924C25.9256 11.7137 25.8813 11.235 25.7927 10.7635Z" fill="#FF4141"/>
<path d="M14.3808 13.0008L17.5212 9.8592C17.9022 9.47802 17.9022 8.85749 17.5212 8.47631C17.1402 8.09513 16.5199 8.09513 16.1389 8.47631L13.0003 11.6179L9.85994 8.47631C9.47891 8.09513 8.85864 8.09513 8.47762 8.47631C8.09659 8.85749 8.09659 9.47802 8.47762 9.8592L11.618 13.0008L8.47762 16.1407C8.09659 16.5219 8.0966 17.1371 8.47407 17.52C8.8551 17.9047 9.47714 17.9065 9.85994 17.5236L13.0003 14.3819L16.1406 17.5236C16.5234 17.9065 17.1455 17.9047 17.5265 17.52C17.904 17.1371 17.904 16.5219 17.5229 16.1407L14.3808 13.0008Z" fill="#FF4141"/>
</g>
<defs>
<clipPath id="clip0_417_22551">
<rect width="26" height="26" fill="white"/>
</clipPath>
</defs>
</svg>
