<svg width="29" height="29" viewBox="0 0 29 29" fill="none" xmlns="http://www.w3.org/2000/svg">
<path d="M17.3684 14.5013L28.4117 3.45803C29.1996 2.67016 29.1996 1.37878 28.4117 0.590905C27.6238 -0.196968 26.3324 -0.196968 25.5446 0.590905L14.5013 11.6342L3.45803 0.593514C2.67016 -0.194359 1.37878 -0.194359 0.590905 0.593514C-0.196968 1.38139 -0.196968 2.67277 0.590905 3.46064L11.6342 14.5039L0.593514 25.5446C-0.194359 26.3324 -0.194359 27.6238 0.593514 28.4117C1.38139 29.1996 2.67277 29.1996 3.46064 28.4117L14.5039 17.3684L25.5472 28.4117C26.3351 29.1996 27.6264 29.1996 28.4143 28.4117C29.2022 27.6238 29.2022 26.3324 28.4143 25.5446L17.3684 14.5013Z" fill="#FF4141"/>
</svg>
