<svg width="28" height="25" viewBox="0 0 28 25" fill="none" xmlns="http://www.w3.org/2000/svg">
<g clip-path="url(#clip0_417_21224)">
<path d="M26.7957 0H1.2043C0.526882 0 0 0.537634 0 1.22888V20.1229C0 20.8141 0.526882 21.3518 1.2043 21.3518H18.0645C18.3656 21.3518 18.629 21.0829 18.629 20.7757C18.629 20.4685 18.3656 20.1997 18.0645 20.1997H1.2043C1.16667 20.1997 1.12903 20.1613 1.12903 20.1229V1.22888C1.12903 1.19048 1.16667 1.15207 1.2043 1.15207H26.7957C26.8333 1.15207 26.871 1.19048 26.871 1.22888V10.0998C26.871 10.4071 27.1344 10.6759 27.4355 10.6759C27.7366 10.6759 28 10.4071 28 10.0998V1.22888C28 0.537634 27.4731 0 26.7957 0Z" fill="#3377FF"/>
<path d="M22.7679 9.52393C20.3593 9.52393 18.4023 11.5209 18.4023 13.9786C18.4023 14.9771 18.7411 15.8987 19.2679 16.6668C19.2679 16.6668 19.2679 16.6668 19.2679 16.7052V24.4625C19.2679 24.6929 19.3808 24.8849 19.6066 25.0001C19.7948 25.1153 20.0206 25.0769 20.2088 24.9233L22.7679 22.8112L25.3271 24.9233C25.44 25.0001 25.5529 25.0385 25.6658 25.0385C25.7411 25.0385 25.8163 25.0385 25.8916 25.0001C26.0798 24.9233 26.2303 24.6929 26.2303 24.4625V16.6668C26.2303 16.6668 26.2303 16.6668 26.2303 16.6284C26.7948 15.8987 27.0959 14.9771 27.0959 13.9402C27.1335 11.5209 25.1765 9.52393 22.7679 9.52393ZM22.7679 10.676C24.5368 10.676 26.0045 12.1737 26.0045 13.9786C26.0045 15.7835 24.5368 17.2812 22.7679 17.2812C20.9991 17.2812 19.5314 15.7835 19.5314 13.9786C19.5314 12.1353 20.9991 10.676 22.7679 10.676ZM23.1443 21.5823C22.9561 21.4287 22.655 21.4287 22.4292 21.5823L20.4346 23.2336V17.7036C21.112 18.1645 21.94 18.4333 22.8056 18.4333C23.6712 18.4333 24.4991 18.1645 25.1765 17.7036V23.2336L23.1443 21.5823Z" fill="#3377FF"/>
<path d="M19.2318 4.10924C19.2318 3.80202 18.9683 3.5332 18.6673 3.5332H3.46295C3.16188 3.5332 2.89844 3.80202 2.89844 4.10924C2.89844 4.41646 3.16188 4.68528 3.46295 4.68528H18.6673C19.006 4.68528 19.2318 4.45486 19.2318 4.10924Z" fill="#3377FF"/>
<path d="M16.8984 7.10436C16.8984 6.79714 16.635 6.52832 16.3339 6.52832H3.46295C3.16188 6.52832 2.89844 6.79714 2.89844 7.10436C2.89844 7.41158 3.16188 7.68039 3.46295 7.68039H16.3339C16.635 7.68039 16.8984 7.41158 16.8984 7.10436Z" fill="#3377FF"/>
<path d="M3.46295 9.52393C3.16188 9.52393 2.89844 9.79274 2.89844 10.1C2.89844 10.4072 3.16188 10.676 3.46295 10.676H14.0006C14.3017 10.676 14.5651 10.4072 14.5651 10.1C14.5651 9.79274 14.3017 9.52393 14.0006 9.52393H3.46295Z" fill="#3377FF"/>
</g>
<defs>
<clipPath id="clip0_417_21224">
<rect width="28" height="25" fill="white"/>
</clipPath>
</defs>
</svg>
