<svg width="19" height="15" viewBox="0 0 19 15" fill="none" xmlns="http://www.w3.org/2000/svg">
<path d="M17.4241 0H0.783109C0.342612 0 0 0.309124 0 0.70657V11.5701C0 11.9675 0.342612 12.2767 0.783109 12.2767H11.7466C11.9424 12.2767 12.1137 12.1221 12.1137 11.9455C12.1137 11.7688 11.9424 11.6142 11.7466 11.6142H0.783109C0.758637 11.6142 0.734162 11.5922 0.734162 11.5701V0.70657C0.734162 0.68449 0.758637 0.662409 0.783109 0.662409H17.4241C17.4486 0.662409 17.4731 0.68449 17.4731 0.70657V5.80712C17.4731 5.98377 17.6444 6.13833 17.8401 6.13833C18.0359 6.13833 18.2072 5.98377 18.2072 5.80712V0.70657C18.2072 0.309124 17.8646 0 17.4241 0Z" fill="#3377FF"/>
<path d="M14.8301 5.47592C13.2639 5.47592 11.9913 6.62409 11.9913 8.03724C11.9913 8.61132 12.2116 9.14125 12.5542 9.58286C12.5542 9.58286 12.5542 9.58286 12.5542 9.60494V14.0652C12.5542 14.1976 12.6276 14.308 12.7744 14.3743C12.8968 14.4405 13.0436 14.4184 13.166 14.3301L14.8301 13.1157L16.4942 14.3301C16.5676 14.3743 16.641 14.3964 16.7144 14.3964C16.7634 14.3964 16.8123 14.3964 16.8613 14.3743C16.9836 14.3301 17.0815 14.1976 17.0815 14.0652V9.58286C17.0815 9.58286 17.0815 9.58286 17.0815 9.56078C17.4486 9.14125 17.6444 8.61132 17.6444 8.01515C17.6688 6.62409 16.3963 5.47592 14.8301 5.47592ZM14.8301 6.13833C15.9803 6.13833 16.9347 6.99946 16.9347 8.03724C16.9347 9.07501 15.9803 9.93614 14.8301 9.93614C13.6799 9.93614 12.7255 9.07501 12.7255 8.03724C12.7255 6.97738 13.6554 6.13833 14.8301 6.13833ZM15.0503 12.4091C14.928 12.3208 14.7322 12.3208 14.5854 12.4091L13.2883 13.3586V10.179C13.7288 10.444 14.2672 10.5986 14.8301 10.5986C15.3929 10.5986 15.9313 10.444 16.3718 10.179V13.3586L15.0503 12.4091Z" fill="#3377FF"/>
<path d="M12.5297 2.36259C12.5297 2.18595 12.3584 2.03139 12.1626 2.03139H2.27591C2.08013 2.03139 1.90883 2.18595 1.90883 2.36259C1.90883 2.53924 2.08013 2.6938 2.27591 2.6938H12.1626C12.3584 2.6938 12.5297 2.53924 12.5297 2.36259Z" fill="#3377FF"/>
<path d="M11.0124 4.08486C11.0124 3.90822 10.8411 3.75365 10.6454 3.75365H2.27591C2.08013 3.75365 1.90883 3.90822 1.90883 4.08486C1.90883 4.2615 2.08013 4.41606 2.27591 4.41606H10.6454C10.8411 4.41606 11.0124 4.2615 11.0124 4.08486Z" fill="#3377FF"/>
<path d="M2.25143 5.47592C2.05566 5.47592 1.88435 5.63048 1.88435 5.80712C1.88435 5.98377 2.05566 6.13833 2.25143 6.13833H9.10362C9.29939 6.13833 9.4707 5.98377 9.4707 5.80712C9.4707 5.63048 9.29939 5.47592 9.10362 5.47592H2.25143Z" fill="#3377FF"/>
</svg>
