<svg width="29" height="32" viewBox="0 0 29 32" fill="none" xmlns="http://www.w3.org/2000/svg">
<g clip-path="url(#clip0_848_48051)">
<path d="M22.5868 31.6251C19.477 31.6251 16.947 29.1917 16.8416 26.0705C16.8416 25.6473 17.1578 25.277 17.5795 25.2241C18.0012 25.2241 18.3701 25.5415 18.4228 25.9647C18.5283 28.2394 20.3731 29.9852 22.5868 29.9852C24.906 29.9852 26.7508 28.0807 26.7508 25.806C26.7508 23.4783 24.8533 21.6268 22.5868 21.6268C20.7947 21.6268 19.1608 22.7906 18.6337 24.5364C18.4755 24.9596 18.0539 25.1712 17.6849 25.0654C17.5268 25.0125 17.3687 24.9067 17.2632 24.8009L11.3072 18.294C10.3584 20.3043 8.35548 21.6268 6.089 21.6268C2.92648 21.6268 0.34375 19.0347 0.34375 15.8606C0.34375 12.6865 2.92648 10.0944 6.089 10.0944C8.5136 10.0944 10.622 11.5756 11.4653 13.7446L17.0524 7.60804C16.4726 4.75138 18.0539 1.89473 20.8474 0.942507C23.8518 -0.0626122 27.1198 1.52442 28.174 4.53978C28.6483 6.02101 28.5956 7.55514 27.9104 8.93056C27.2252 10.306 26.0656 11.364 24.5898 11.8401C22.2179 12.6336 19.6351 11.8401 18.1066 9.82988C17.843 9.45957 17.8958 8.98346 18.2647 8.71896C18.6337 8.45445 19.1081 8.50735 19.3716 8.87766C20.4785 10.306 22.3233 10.8879 24.0627 10.306C25.1168 9.93568 25.9602 9.19507 26.4873 8.18995C26.9617 7.18483 27.0671 6.02101 26.6981 4.96299C25.9075 2.84694 23.5356 1.68312 21.3218 2.42374C19.2135 3.16435 18.0539 5.43909 18.6864 7.60804C18.7391 7.87254 18.6864 8.18995 18.5283 8.34865L11.6761 15.8606C11.6234 15.9664 11.518 16.0193 11.4126 16.0722C11.4653 16.1251 11.518 16.178 11.5707 16.178L11.6234 16.2309L17.6322 22.8435C18.6337 21.1507 20.5312 20.0398 22.5868 20.0398C25.7494 20.0398 28.3321 22.6319 28.3321 25.806C28.3321 29.0329 25.7494 31.6251 22.5868 31.6251ZM6.089 11.6285C3.76982 11.6285 1.92501 13.533 1.92501 15.8077C1.92501 18.0824 3.82253 19.9869 6.089 19.9869C8.09193 19.9869 9.77861 18.6114 10.2003 16.6541C10.2003 16.5483 10.2003 16.4954 10.253 16.3896C10.3057 16.2309 10.4638 16.0722 10.622 15.9664C10.4111 15.8606 10.3057 15.649 10.253 15.3845V15.3316C10.0422 13.2684 8.25006 11.6285 6.089 11.6285Z" fill="#3377FF"/>
</g>
<defs>
<clipPath id="clip0_848_48051">
<rect width="28.0938" height="31" fill="white" transform="translate(0.34375 0.624939)"/>
</clipPath>
</defs>
</svg>
