<svg width="27" height="31" viewBox="0 0 27 31" fill="none" xmlns="http://www.w3.org/2000/svg">
<g clip-path="url(#clip0_417_21874)">
<path d="M19.2062 17.9398C18.8351 17.9398 18.5103 18.2747 18.5103 18.6574V29.5648H1.39175V1.43519H18.5103V6.74537C18.5103 7.12809 18.8351 7.46296 19.2062 7.46296C19.5773 7.46296 19.9021 7.12809 19.9021 6.74537V0.717593C19.9021 0.334877 19.5773 0 19.2062 0H0.695876C0.324742 0 0 0.334877 0 0.717593V30.2824C0 30.6651 0.324742 31 0.695876 31H19.2062C19.5773 31 19.9021 30.6651 19.9021 30.2824V18.6574C19.9021 18.2269 19.5773 17.9398 19.2062 17.9398Z" fill="#3377FF"/>
<path d="M26.8128 7.70197L24.4468 5.26215C24.1685 4.97512 23.7509 4.97512 23.4726 5.26215L22.1272 6.6495C21.8489 6.93654 21.8489 7.36709 22.1272 7.65413C22.4056 7.94116 22.8231 7.94116 23.1015 7.65413L23.9829 6.74518L25.3747 8.18036L23.7973 9.75907C23.7973 9.56771 23.7509 9.32851 23.6118 9.18499L21.9881 7.51061C21.7097 7.22357 21.2922 7.22357 21.0138 7.51061L8.34888 20.5708C8.2561 20.6665 8.20971 20.7622 8.16332 20.9057L7.23548 24.2544C7.18909 24.4936 7.23548 24.7807 7.42105 24.972C7.56022 25.1155 7.74579 25.1634 7.93136 25.1634C7.97775 25.1634 8.07053 25.1634 8.11693 25.1155L11.318 24.2066C11.4107 24.1588 11.5499 24.1109 11.6427 24.0152L26.8592 8.7066C26.9984 8.56308 27.0448 8.37172 27.0912 8.18036C27.1375 7.989 26.952 7.84549 26.8128 7.70197ZM10.7613 22.8671L8.90559 23.3933L9.41589 21.4319L21.4314 9.04147L22.5448 10.1896C22.6839 10.3331 22.9159 10.4288 23.1015 10.381L10.7613 22.8671Z" fill="#3377FF"/>
</g>
<defs>
<clipPath id="clip0_417_21874">
<rect width="27" height="31" fill="white"/>
</clipPath>
</defs>
</svg>
