<svg width="8" height="6" viewBox="0 0 8 6" fill="none" xmlns="http://www.w3.org/2000/svg">
<path d="M4.00119 4.01502C4.34033 3.65519 4.66968 3.3057 4.99986 2.95706C5.67976 2.23999 6.35886 1.52207 7.03877 0.804999C7.27192 0.559664 7.57438 0.532979 7.80427 0.733551C8.02031 0.922072 8.06434 1.25865 7.9021 1.49882C7.86623 1.5522 7.82221 1.59954 7.779 1.64603C6.67028 2.81761 5.56155 3.98833 4.45283 5.15905C4.14875 5.48014 3.85445 5.48014 3.55199 5.16077C2.98377 4.5625 0.752464 2.209 0.187504 1.60815C-0.0692963 1.33613 -0.0603286 0.959087 0.202178 0.731829C0.397835 0.562247 0.67094 0.55536 0.869858 0.721499C0.945675 0.7852 1.01334 0.860092 1.08264 0.932401C1.49759 1.37056 3.57645 3.56653 4.00119 4.01502Z" fill="white"/>
</svg>
