<svg width="17" height="17" viewBox="0 0 17 17" fill="none" xmlns="http://www.w3.org/2000/svg">
<path d="M11.409 9.32425C11.1886 9.32425 10.9957 9.49831 10.9957 9.69722V15.3664H0.826741V0.74594H10.9957V3.50592C10.9957 3.70484 11.1886 3.87889 11.409 3.87889C11.6295 3.87889 11.8224 3.70484 11.8224 3.50592V0.37297C11.8224 0.174053 11.6295 0 11.409 0H0.413371C0.192906 0 0 0.174053 0 0.37297V15.7393C0 15.9383 0.192906 16.1123 0.413371 16.1123H11.409C11.6295 16.1123 11.8224 15.9383 11.8224 15.7393V9.69722C11.8224 9.49831 11.6295 9.32425 11.409 9.32425Z" fill="#3377FF"/>
<path d="M15.901 4.02808L14.4955 2.75998C14.3302 2.61079 14.0822 2.61079 13.9168 2.75998L13.1176 3.48106C12.9523 3.63024 12.9523 3.85403 13.1176 4.00321C13.283 4.1524 13.531 4.1524 13.6964 4.00321L14.22 3.53079L15.0467 4.27673L14.1097 5.09726C14.1097 4.9978 14.0822 4.87348 13.9995 4.79888L13.035 3.92862C12.8696 3.77943 12.6216 3.77943 12.4563 3.92862L4.96046 10.6918C4.90535 10.7415 4.87779 10.7913 4.85023 10.8659L4.29907 12.6064C4.27151 12.7307 4.29907 12.8799 4.4093 12.9794C4.49198 13.054 4.60221 13.0788 4.71244 13.0788C4.74 13.0788 4.79512 13.0788 4.82267 13.054L6.72418 12.5815C6.7793 12.5567 6.86197 12.5318 6.91709 12.4821L15.9561 4.52537C16.0388 4.45078 16.0664 4.35132 16.0939 4.25186C16.1215 4.1524 15.9837 4.07781 15.901 4.02808ZM6.36593 11.9102L5.2636 12.1837L5.56674 11.1642L12.7043 4.72429L13.3657 5.32104C13.4483 5.39564 13.5861 5.44537 13.6964 5.4205L6.36593 11.9102Z" fill="#3377FF"/>
</svg>
