<svg width="55" height="55" viewBox="0 0 55 55" fill="none" xmlns="http://www.w3.org/2000/svg">
<path d="M33.013 25.645C32.8443 25.645 32.7146 25.645 32.5849 25.645C29.1344 25.645 25.6969 25.645 22.2465 25.645C22.013 25.645 21.9222 25.6061 21.9351 25.3337C21.9611 24.8019 21.9481 24.27 21.9351 23.7382C21.9351 23.4658 21.8443 23.2193 21.5979 23.0766C21.1179 22.7913 20.5731 23.1285 20.5731 23.7252C20.5731 24.9186 20.5731 26.112 20.5731 27.3054C20.5731 27.8502 20.5601 28.408 20.5731 28.9528C20.5861 29.3549 20.8585 29.6403 21.2217 29.6533C21.6108 29.6663 21.8962 29.3939 21.9351 28.9917C21.9481 28.862 21.9351 28.7323 21.9481 28.6026C21.9481 28.0837 21.9481 27.5649 21.9481 27.0071C25.658 27.0071 29.342 27.0071 33.013 27.0071C33.013 26.5401 33.013 26.112 33.013 25.645Z" fill="#3377FF"/>
<path d="M42.5472 20.0542C42.0283 18.6792 40.8219 17.888 39.3561 17.888C37.0083 17.888 34.6604 17.888 32.3125 17.888C32.1958 17.888 32.079 17.888 31.9363 17.888C31.9363 17.7193 31.9363 17.6026 31.9363 17.4858C31.9363 16.7465 31.9363 16.02 31.9363 15.2807C31.9363 14.7748 31.6899 14.5153 31.184 14.5153C28.7193 14.5153 26.2677 14.5153 23.8031 14.5153C23.2842 14.5153 23.0507 14.7877 23.0507 15.3066C23.0507 16.046 23.0507 16.7983 23.0507 17.5377C23.0507 17.6415 23.0377 17.7583 23.0377 17.9009C22.895 17.9009 22.7783 17.9009 22.6616 17.9009C20.3267 17.9009 17.9788 17.9009 15.6439 17.9009C13.6851 17.9009 12.2193 19.3538 12.2064 21.3255C12.2064 26.592 12.2064 31.8585 12.2064 37.112C12.2064 39.0318 13.6722 40.4976 15.592 40.4976C23.4917 40.4976 31.4045 40.4976 39.3042 40.4976C39.6675 40.4976 40.0307 40.4587 40.3679 40.355C41.8597 39.9139 42.7677 38.6557 42.7677 37.0731C42.7677 36.8785 42.7677 36.684 42.7677 36.4764C42.7677 36.1002 42.4693 35.7889 42.0932 35.7889C41.717 35.7889 41.4186 36.0873 41.4186 36.4634C41.4186 36.658 41.4186 36.8526 41.4186 37.0472C41.4186 38.2795 40.5755 39.1226 39.3432 39.1226C31.4434 39.1226 23.5436 39.1226 15.6439 39.1226C14.4375 39.1226 13.5814 38.2925 13.5814 37.0991C13.5684 33.8302 13.5814 30.5613 13.5684 27.2925C13.5684 27.046 13.6722 27.0071 13.8927 27.0071C15.6309 27.0071 17.3561 27.0071 19.0943 27.0071C19.2111 27.0071 19.3408 27.0071 19.4835 27.0071V25.658C19.3538 25.658 19.237 25.645 19.1203 25.645C17.395 25.645 15.6698 25.645 13.9446 25.645C13.5684 25.645 13.5684 25.645 13.5684 25.2818C13.5684 23.9717 13.5684 22.6745 13.5684 21.3644C13.5684 20.0932 14.3986 19.263 15.6698 19.263C23.5566 19.263 31.4304 19.263 39.3172 19.263C40.5625 19.263 41.4057 20.0802 41.4057 21.3125C41.4186 22.6486 41.4057 23.9976 41.4057 25.3337C41.4057 25.5672 41.3278 25.6321 41.1073 25.6321C39.3042 25.6191 37.5141 25.6191 35.7111 25.6321C35.4906 25.6321 35.4257 25.5542 35.4257 25.3467C35.4387 24.8019 35.4387 24.2441 35.4257 23.6993C35.4127 23.2583 35.1403 22.9729 34.7512 22.9729C34.362 22.9729 34.0896 23.2583 34.0896 23.6863V23.6993C34.0896 23.7123 34.0896 23.7123 34.0896 23.7252V28.862C34.0507 29.329 34.3491 29.6663 34.7771 29.6533C35.1663 29.6533 35.4516 29.329 35.4387 28.9139C35.4387 28.3691 35.4516 27.8113 35.4387 27.2665C35.4387 27.059 35.5035 26.9941 35.7111 26.9941C36.5413 27.0071 37.3715 26.9941 38.2016 26.9941C39.1745 26.9941 40.1344 27.0071 41.1073 26.9941C41.3538 26.9941 41.4186 27.0719 41.4186 27.3184C41.4186 28.9788 41.4186 30.6392 41.4186 32.2995C41.4186 32.6757 41.73 32.987 42.1061 32.987C42.4823 32.987 42.7936 32.6887 42.7936 32.3125C42.7936 28.6545 42.7936 24.9965 42.7807 21.3255C42.7677 20.8974 42.7028 20.4564 42.5472 20.0542ZM30.3019 17.9009C29.3679 17.888 28.421 17.9009 27.487 17.9009C26.566 17.9009 25.645 17.888 24.7241 17.9009C24.4776 17.9009 24.4127 17.8231 24.4127 17.5896C24.4257 17.0967 24.4257 16.6038 24.4127 16.1108C24.4127 15.9292 24.4646 15.8644 24.6462 15.8644C26.5401 15.8644 28.4469 15.8644 30.3408 15.8644C30.5224 15.8644 30.5873 15.9292 30.5743 16.1108C30.5613 16.6167 30.5613 17.1356 30.5743 17.6415C30.5873 17.862 30.4965 17.9009 30.3019 17.9009Z" fill="#3377FF"/>
<path d="M27.5 0C12.3361 0 0 12.3361 0 27.5C0 42.6639 12.3361 55 27.5 55C42.6639 55 55 42.6639 55 27.5C55 12.3361 42.6639 0 27.5 0ZM27.5 53.7028C13.0495 53.7028 1.29717 41.9505 1.29717 27.5C1.29717 13.0495 13.0495 1.29717 27.5 1.29717C41.9505 1.29717 53.7028 13.0495 53.7028 27.5C53.7028 41.9505 41.9505 53.7028 27.5 53.7028Z" fill="#3377FF"/>
</svg>
