<svg width="47" height="47" viewBox="0 0 47 47" fill="none" xmlns="http://www.w3.org/2000/svg">
<g filter="url(#filter0_d_746_43416)">
<path d="M42.995 0.731393C42.934 0.190467 42.5984 0 41.9044 0C29.6477 0 17.391 0 5.14188 0C5.06561 0 4.98934 0 4.91307 0C4.54697 0 4.26477 0.159992 4.1046 0.479977C3.92918 0.815198 3.98257 1.12756 4.20375 1.43993C5.69103 3.50459 7.16306 5.57687 8.64271 7.64915C11.4571 11.5804 14.2715 15.5116 17.0783 19.4505C17.2155 19.6409 17.2918 19.9076 17.2918 20.1438C17.3071 26.0635 17.2994 31.9756 17.2994 37.8953C17.2994 38.581 17.4596 38.7943 18.1003 39C18.1842 38.9848 18.2986 38.9695 18.3825 38.9619C18.5655 38.8476 18.7638 38.7486 18.9087 38.5962C22.3943 35.1373 25.8799 31.6708 29.3502 28.1891C29.5333 28.0063 29.6782 27.6863 29.6858 27.4272C29.7087 24.9664 29.6934 22.5056 29.7011 20.0447C29.7011 19.8619 29.785 19.6486 29.8917 19.4962C30.2121 19.0315 30.54 18.5819 30.868 18.1248C31.1197 17.7744 31.0816 17.302 30.7841 16.9973C30.4028 16.6011 29.7544 16.6544 29.4341 17.0963C28.9994 17.6906 28.5723 18.2924 28.1604 18.9019C28.0078 19.1229 27.9468 19.4429 27.9468 19.7248C27.9316 22.0713 27.9392 24.4179 27.9316 26.772C27.9316 26.9549 27.8629 27.1758 27.7409 27.2977C25.9485 29.1033 24.1486 30.8861 22.3486 32.6841C21.3799 33.6517 20.4113 34.6345 19.374 35.5868C19.2367 35.5259 19.2215 35.5183 19.0918 35.4573C19.0918 30.2538 19.0918 25.0502 19.0994 19.839C19.0994 19.4048 18.9774 19.0391 18.7257 18.681C14.7367 13.1498 10.7783 7.60344 6.81221 2.06466C6.75882 1.99609 6.72069 1.91229 6.64442 1.79039H40.4095C40.1349 2.18656 39.8832 2.55226 39.6163 2.91795C37.0688 6.46826 34.5214 10.0262 31.9663 13.5765C31.6383 14.0336 31.8214 14.6812 32.34 14.9021C32.7214 15.0621 33.1638 14.9402 33.4002 14.605C35.429 11.7709 37.4654 8.93671 39.4942 6.10256C40.5849 4.57882 41.6832 3.06271 42.7586 1.53135C42.9112 1.30279 43.0256 0.982809 42.995 0.731393Z" fill="#514F4F"/>
</g>
<defs>
<filter id="filter0_d_746_43416" x="0" y="0" width="47" height="47" filterUnits="userSpaceOnUse" color-interpolation-filters="sRGB">
<feFlood flood-opacity="0" result="BackgroundImageFix"/>
<feColorMatrix in="SourceAlpha" type="matrix" values="0 0 0 0 0 0 0 0 0 0 0 0 0 0 0 0 0 0 127 0" result="hardAlpha"/>
<feOffset dy="4"/>
<feGaussianBlur stdDeviation="2"/>
<feComposite in2="hardAlpha" operator="out"/>
<feColorMatrix type="matrix" values="0 0 0 0 0 0 0 0 0 0 0 0 0 0 0 0 0 0 0.25 0"/>
<feBlend mode="normal" in2="BackgroundImageFix" result="effect1_dropShadow_746_43416"/>
<feBlend mode="normal" in="SourceGraphic" in2="effect1_dropShadow_746_43416" result="shape"/>
</filter>
</defs>
</svg>
