<svg width="41" height="21" viewBox="0 0 41 21" fill="none" xmlns="http://www.w3.org/2000/svg">
<path d="M0 2.11524C0 0.952813 0.951591 0 2.11253 0H38.8875C40.0484 0 41 0.952813 41 2.11524C41 3.27768 40.0484 4.23049 38.8875 4.23049H2.11253C0.951591 4.23049 0 3.27768 0 2.11524Z" fill="#3377FF"/>
<path d="M3.80093 10.4891V10.078C3.80093 9.02722 4.66008 8.16969 5.70683 8.16969H35.2904C36.3399 8.16969 37.1964 9.02995 37.1964 10.078V10.4891C37.1964 11.5399 36.3372 12.3975 35.2904 12.3975H5.70683C4.66008 12.3975 3.80093 11.5372 3.80093 10.4891Z" fill="#3377FF"/>
<path d="M8.00424 19.3476V18.4192C8.00424 17.51 8.74648 16.7668 9.65458 16.7668H31.3454C32.2535 16.7668 32.9958 17.51 32.9958 18.4192V19.3476C32.9958 20.2568 32.2535 21 31.3454 21H9.65458C8.74648 21 8.00424 20.2568 8.00424 19.3476Z" fill="#3377FF"/>
</svg>
