<svg width="10" height="8" viewBox="0 0 10 8" fill="none" xmlns="http://www.w3.org/2000/svg">
<path d="M9.20947 7.0518C9.28065 7.15262 9.39926 7.20996 9.52184 7.20007C9.64441 7.19019 9.75315 7.11506 9.80653 7.00435C9.8599 6.89364 9.84804 6.76118 9.77885 6.66035L6.01465 1.20385C5.8644 0.984398 5.61727 0.853917 5.35236 0.853917C5.08744 0.853917 4.83834 0.982422 4.68808 1.19989L0.90807 6.64256C0.836898 6.74339 0.827013 6.87584 0.878415 6.98656C0.931793 7.09925 1.03855 7.17437 1.1631 7.18426C1.28568 7.19414 1.40627 7.13878 1.47547 7.03598L5.25548 1.59529C5.27723 1.56366 5.31282 1.54587 5.35038 1.54587C5.38794 1.54587 5.42353 1.56366 5.44527 1.59529L9.20947 7.0518Z" fill="#514F4F"/>
</svg>
