<svg width="10" height="8" viewBox="0 0 10 8" fill="none" xmlns="http://www.w3.org/2000/svg">
<path d="M1.47607 1.00289C1.4049 0.902063 1.28628 0.844731 1.16371 0.854616C1.04113 0.8645 0.9324 0.939626 0.879021 1.05034C0.825642 1.16105 0.837504 1.29351 0.906699 1.39433L4.6709 6.85084C4.82115 7.07029 5.06827 7.20077 5.33319 7.20077C5.59811 7.20077 5.84721 7.07227 5.99746 6.8548L9.77748 1.41213C9.84865 1.3113 9.85853 1.17884 9.80713 1.06813C9.75375 0.955442 9.647 0.880316 9.52244 0.870431C9.39987 0.860546 9.27927 0.915902 9.21008 1.01871L5.43006 6.4594C5.40832 6.49103 5.37273 6.50882 5.33517 6.50882C5.29761 6.50882 5.26202 6.49103 5.24027 6.4594L1.47607 1.00289Z" fill="#3377FF"/>
</svg>
