<svg width="87" height="61" viewBox="0 0 87 61" fill="none" xmlns="http://www.w3.org/2000/svg">
<rect x="0.5" y="0.5" width="86" height="60" rx="2.5" stroke="white"/>
<path d="M60.3551 30.0238L49.508 22.2234C49.3105 22.0745 49.0591 22 48.8076 22C48.6281 22 48.4485 22.0372 48.2868 22.1303C47.8917 22.3165 47.6224 22.7261 47.5864 23.1729C47.5505 23.6197 47.7481 24.0665 48.1073 24.3271L56.6556 30.4892H27.3469C26.6106 30.4892 26 31.1036 26 31.8669C26 32.6302 26.6106 33.2631 27.3469 33.2631H56.7095L48.1252 39.4067C47.9097 39.5556 47.7481 39.7604 47.6583 40.021C47.4248 40.6726 47.7301 41.3614 48.2868 41.6407C48.4485 41.7151 48.6281 41.771 48.8076 41.771C49.0591 41.771 49.2925 41.6965 49.508 41.5476L60.3731 33.7286C61.1274 33.1887 61.5045 32.1834 61.1992 31.1967C61.0555 30.7313 60.7502 30.3217 60.3551 30.0238Z" fill="white"/>
</svg>
