<svg width="32" height="27" viewBox="0 0 32 27" fill="none" xmlns="http://www.w3.org/2000/svg">
<g clip-path="url(#clip0_417_22532)">
<path d="M13.3493 18.7339C11.0916 18.7339 9.22656 20.5926 9.22656 22.8426C9.22656 25.0926 11.0916 26.9513 13.3493 26.9513C15.6069 26.9513 17.472 25.0926 17.472 22.8426C17.472 20.5926 15.6069 18.7339 13.3493 18.7339ZM13.3493 25.5328C11.8769 25.5328 10.699 24.3589 10.699 22.8915C10.699 21.4241 11.8769 20.2502 13.3493 20.2502C14.8217 20.2502 15.9996 21.4241 15.9996 22.8915C15.9996 24.3589 14.8217 25.5328 13.3493 25.5328Z" fill="#3377FF"/>
<path d="M23.2633 18.7339C21.0057 18.7339 19.1406 20.5926 19.1406 22.8426C19.1406 25.0926 21.0057 26.9513 23.2633 26.9513C25.521 26.9513 27.386 25.0926 27.386 22.8426C27.386 20.5926 25.521 18.7339 23.2633 18.7339ZM23.2633 25.5328C21.7909 25.5328 20.613 24.3589 20.613 22.8915C20.613 21.4241 21.7909 20.2502 23.2633 20.2502C24.7357 20.2502 25.9136 21.4241 25.9136 22.8915C25.9136 24.3589 24.7357 25.5328 23.2633 25.5328Z" fill="#3377FF"/>
<path d="M31.8528 3.32609C31.7055 3.13043 31.5092 3.03261 31.2638 3.03261H9.91411C9.52147 3.03261 9.17791 3.375 9.17791 3.7663C9.17791 4.15761 9.52147 4.5 9.91411 4.5H30.3804L27.681 15.9457H9.03067L6.82209 0.63587C6.77301 0.244565 6.42945 0 6.08589 0H0.736196C0.343558 0 0 0.342391 0 0.733696C0 1.125 0.343558 1.46739 0.736196 1.46739H5.44785L7.65644 16.8261C7.70552 17.1685 8 17.462 8.39264 17.462H28.2209C28.5644 17.462 28.8589 17.2174 28.9571 16.875L32 3.96196C32.0491 3.71739 32 3.52174 31.8528 3.32609Z" fill="#3377FF"/>
</g>
<defs>
<clipPath id="clip0_417_22532">
<rect width="32" height="27" fill="white"/>
</clipPath>
</defs>
</svg>
