<?xml version="1.0" encoding="utf-8"?>
<!-- Generator: Adobe Illustrator 23.0.1, SVG Export Plug-In . SVG Version: 6.00 Build 0)  -->
<svg version="1.1" id="Capa_1" xmlns="http://www.w3.org/2000/svg" xmlns:xlink="http://www.w3.org/1999/xlink" x="0px" y="0px"
	 viewBox="0 0 43 43" style="enable-background:new 0 0 43 43;" xml:space="preserve">
<style type="text/css">
	.st0{fill:#3377FF;}
	.st1{fill:#FFFFFF;}
</style>
<circle class="st0" cx="21.5" cy="21.5" r="21.5"/>
<g>
	<path class="st1" d="M21.5,20.4c-3.1,0-5.6-2.6-5.6-5.7c0-3.1,2.5-5.7,5.6-5.7c3.1,0,5.6,2.6,5.6,5.7
		C27.2,17.8,24.6,20.4,21.5,20.4z M21.5,10.2c-2.5,0-4.5,2-4.5,4.5s2,4.5,4.5,4.5c2.5,0,4.5-2,4.5-4.5S24,10.2,21.5,10.2z"/>
	<path class="st1" d="M31,34h-4.8c-0.3,0-0.6-0.3-0.6-0.6v-5.4c0-0.3,0.3-0.6,0.6-0.6c0.3,0,0.6,0.3,0.6,0.6v4.8h3.6v-3.3
		c0-4.1-3.3-7.4-7.4-7.4H20c-4.1,0-7.4,3.3-7.4,7.4v3.3h3.5v-4.8c0-0.3,0.3-0.6,0.6-0.6c0.3,0,0.6,0.3,0.6,0.6v5.4
		c0,0.3-0.3,0.6-0.6,0.6h-4.6c-0.3,0-0.6-0.3-0.6-0.6v-3.9c0-4.8,3.8-8.6,8.5-8.6H23c4.7,0,8.5,3.9,8.5,8.6v3.9
		C31.5,33.7,31.3,34,31,34z"/>
</g>
</svg>
