<svg width="55" height="55" viewBox="0 0 55 55" fill="none" xmlns="http://www.w3.org/2000/svg">
<path d="M27.5 0C12.3361 0 0 12.3361 0 27.5C0 42.6639 12.3361 55 27.5 55C42.6639 55 55 42.6639 55 27.5C55 12.3361 42.6639 0 27.5 0ZM27.5 53.7028C13.0495 53.7028 1.29717 41.9505 1.29717 27.5C1.29717 13.0495 13.0495 1.29717 27.5 1.29717C41.9505 1.29717 53.7028 13.0495 53.7028 27.5C53.7028 41.9505 41.9505 53.7028 27.5 53.7028Z" fill="#2ABA93"/>
<path d="M33.4021 22C33.2983 21.7017 33.0519 21.4811 32.7406 21.4422L29.6274 20.9882L28.2394 18.1604C28.0967 17.875 27.8243 17.7064 27.5 17.7064C27.1757 17.7064 26.9033 17.888 26.7606 18.1604L25.3726 20.9752L22.2594 21.4292C21.9481 21.4682 21.6887 21.6887 21.5979 21.987C21.4941 22.2854 21.5849 22.6097 21.8054 22.8302L24.0625 25.0224L23.5307 28.1226C23.4917 28.3561 23.5566 28.6026 23.7123 28.7842C23.8679 28.9658 24.1014 29.0825 24.3349 29.0825C24.4646 29.0825 24.5943 29.0436 24.7111 28.9917L27.5 27.5259L30.2889 28.9917C30.4057 29.0566 30.5354 29.0825 30.6651 29.0825C30.9116 29.0825 31.1321 28.9788 31.2877 28.7842C31.4434 28.6026 31.5083 28.3561 31.4693 28.1226L30.9375 25.0224L33.1946 22.8302C33.4151 22.6226 33.4929 22.2983 33.4021 22ZM30.1073 24.3608C29.9127 24.5554 29.8219 24.8149 29.8738 25.0873L30.3408 27.8243L27.8762 26.5271C27.6427 26.3974 27.3443 26.3974 27.1108 26.5271L24.6462 27.8243L25.1132 25.0873C25.1651 24.8149 25.0743 24.5554 24.8797 24.3608L22.8821 22.4151L25.6321 22.013C25.9045 21.9741 26.125 21.8054 26.2547 21.559L27.487 19.0684L28.7193 21.559C28.8361 21.8054 29.0696 21.9741 29.342 22.013L32.092 22.4151L30.1073 24.3608Z" fill="#2ABA93"/>
<path d="M44.1816 18.8998C44.2075 17.2264 43.6887 16.7205 42.0283 16.7205C40.9257 16.7205 39.8231 16.7205 38.7724 16.7205C38.7335 16.5778 38.7205 16.5519 38.7075 16.5259C38.7075 15.8384 38.6946 15.1639 38.6946 14.4764C38.6816 13.5554 38.2795 13.1014 37.3585 13.1014C30.8078 13.0884 24.2571 13.0884 17.6934 13.1014C16.7724 13.1014 16.3573 13.5554 16.3443 14.4634C16.3314 15.1899 16.3443 15.9163 16.3443 16.7205C15.0601 16.7205 13.8538 16.7075 12.6474 16.7205C11.5059 16.7335 10.8573 17.3561 10.8443 18.4976C10.8184 19.6651 10.8054 20.8325 10.8573 21.987C10.987 25.2818 13.0106 27.8373 16.1887 28.7453C16.6297 28.875 16.8373 29.0696 16.967 29.5106C17.9788 32.7795 20.1061 35.0495 23.2323 36.3856C23.5696 36.5283 23.9198 36.658 24.309 36.8137C23.7252 38.0719 23.1804 39.3042 22.5837 40.4847C22.4151 40.8219 22.0259 41.0425 21.7535 41.3408C21.5071 41.6132 21.1439 41.8986 21.105 42.2099C21.0142 43.0531 21.079 43.9092 21.079 44.7394H33.9729C33.9729 44.0519 33.9599 43.4033 33.9729 42.7547C33.9858 42.2488 33.8821 41.8208 33.5578 41.5354L32.4682 40.5884C31.8844 39.3561 31.3137 38.1108 30.704 36.8137C31.0542 36.671 31.3137 36.5672 31.5731 36.4764C32.6238 36.0613 33.5578 35.5424 34.375 34.9068C34.6344 34.7123 34.6993 34.3361 34.5307 34.0507C34.3361 33.7134 33.8821 33.6226 33.5708 33.8561C32.4682 34.6734 31.1321 35.296 29.5884 35.7111C29.3809 35.763 29.1604 35.8408 28.875 35.9316C29.316 36.8915 29.7311 37.7995 30.1592 38.7075C30.6002 39.6545 30.8726 40.329 31.3396 41.25L32.7924 42.5472V43.4811H22.3892V43.3774C22.3892 43.1179 22.3892 42.8585 22.3892 42.5861L23.5566 41.4705C24.4387 39.6545 25.2689 37.8125 26.138 35.9316C25.8396 35.8278 25.6061 35.75 25.3726 35.6851C20.9752 34.5047 18.1344 31.5601 17.8231 27.0849C17.5248 22.908 17.7583 18.7052 17.7583 14.4375H37.3455C37.3585 14.6321 37.3974 14.8267 37.3974 15.0212C37.3715 18.796 37.4493 22.5578 37.2936 26.3325C37.2288 28.0448 36.8396 29.5495 36.1521 30.8467C36.0094 31.1191 36.0873 31.4564 36.3337 31.638L36.3597 31.6509C36.671 31.8715 37.0861 31.7547 37.2677 31.4304C37.5531 30.8726 37.7995 30.2889 38.0071 29.6533C38.1887 29.1215 38.4092 28.8491 38.967 28.6804C41.691 27.8632 43.4552 26.0342 43.9741 23.2453C44.2594 21.8573 44.1557 20.3656 44.1816 18.8998ZM16.3833 27.3962C14.2429 27.033 12.2453 24.6333 12.1415 22.1427C12.0896 20.9882 12.1026 19.8208 12.1415 18.6533C12.1545 18.4458 12.4269 18.0696 12.5955 18.0696C13.8278 18.0177 15.0472 18.0436 16.3833 18.0436C16.3833 21.2217 16.3833 24.309 16.3833 27.3962ZM42.7417 23.0377C42.4304 25.1392 40.6663 26.9033 38.6557 27.4222C38.6557 24.3349 38.6557 21.2476 38.6557 18.0307C40.0177 18.0307 41.25 18.0177 42.4823 18.0566C42.638 18.0566 42.9104 18.355 42.9104 18.5106C42.8844 20.0283 42.9493 21.559 42.7417 23.0377Z" fill="#2ABA93"/>
</svg>
