<svg width="15" height="15" viewBox="0 0 15 15" fill="none" xmlns="http://www.w3.org/2000/svg">
<path d="M13.7498 14.2104C13.6508 14.2104 13.5518 14.2104 13.4491 14.2104C13.1411 14.1517 12.9138 13.9647 12.7011 13.7484C11.8321 12.8721 10.9557 12.003 10.083 11.134C10.05 11.101 10.0134 11.068 9.97671 11.0314C9.88505 11.09 9.80071 11.1414 9.71638 11.1964C8.89503 11.7134 7.99302 11.9957 7.02867 12.0544C5.76365 12.135 4.59396 11.8344 3.51595 11.1707C2.05292 10.265 1.20224 8.93766 0.846569 7.27297C0.795235 7.0383 0.773235 6.79996 0.740234 6.56529C0.740234 6.31228 0.740234 6.05561 0.740234 5.80261C0.751235 5.71094 0.762235 5.61561 0.773235 5.52394C0.875903 4.62926 1.17291 3.80058 1.64958 3.03423C2.55526 1.58221 3.87528 0.738863 5.52898 0.386857C5.77098 0.335523 6.02032 0.313523 6.26599 0.276855C6.51899 0.276855 6.77566 0.276855 7.02867 0.276855C7.05067 0.284189 7.069 0.295189 7.091 0.298856C7.87568 0.353857 8.60903 0.57386 9.30937 0.925866C10.4094 1.47954 11.2454 2.29722 11.8247 3.38257C12.3931 4.44592 12.6168 5.58261 12.4994 6.78163C12.4114 7.66531 12.1364 8.48665 11.6671 9.242C11.6121 9.33367 11.5534 9.42167 11.4874 9.52434C11.5314 9.561 11.5681 9.58667 11.5974 9.61967C12.4591 10.4814 13.3208 11.3467 14.1861 12.2047C14.4135 12.4284 14.6115 12.6631 14.6738 12.9857C14.6738 13.0847 14.6738 13.1837 14.6738 13.2864C14.6371 13.3891 14.6151 13.4954 14.5675 13.5907C14.4025 13.9354 14.1128 14.1261 13.7498 14.2104ZM10.3837 6.17662C10.3874 4.10125 8.71903 2.42922 6.63633 2.42556C4.5573 2.42189 2.88894 4.09025 2.88527 6.17295C2.8816 8.25198 4.54629 9.90934 6.63266 9.92768C8.66403 9.94601 10.4167 8.21898 10.3837 6.17662Z" fill="#2E4259"/>
</svg>
