<svg width="29" height="30" viewBox="0 0 29 30" fill="none" xmlns="http://www.w3.org/2000/svg">
<g filter="url(#filter0_d_366_19137)">
<path d="M23.6359 21.3566C23.4898 21.3566 23.3436 21.3566 23.192 21.3566C22.7373 21.27 22.4016 20.9939 22.0877 20.6745C20.8047 19.3806 19.5108 18.0976 18.2224 16.8146C18.1737 16.7659 18.1195 16.7172 18.0654 16.663C17.9301 16.7497 17.8056 16.8255 17.681 16.9067C16.4684 17.67 15.1367 18.0868 13.7129 18.1734C11.8453 18.2925 10.1183 17.8486 8.52676 16.8688C6.36676 15.5316 5.11082 13.5719 4.5857 11.1142C4.50991 10.7677 4.47743 10.4158 4.42871 10.0694C4.42871 9.69583 4.42871 9.31688 4.42871 8.94335C4.44495 8.80801 4.46119 8.66726 4.47743 8.53192C4.62901 7.21102 5.06751 5.98756 5.77127 4.85613C7.10841 2.71237 9.05728 1.46726 11.4988 0.947562C11.8561 0.871773 12.2242 0.839292 12.5869 0.785156C12.9604 0.785156 13.3394 0.785156 13.7129 0.785156C13.7454 0.795983 13.7725 0.812224 13.805 0.817637C14.9634 0.89884 16.0462 1.22365 17.0801 1.74335C18.7042 2.5608 19.9385 3.76801 20.7938 5.37042C21.6329 6.94034 21.9631 8.61854 21.7899 10.3888C21.66 11.6934 21.254 12.9061 20.561 14.0212C20.4798 14.1566 20.3932 14.2865 20.2958 14.4381C20.3607 14.4922 20.4149 14.5301 20.4582 14.5788C21.7304 15.851 23.0025 17.1286 24.2801 18.3954C24.6158 18.7256 24.9081 19.0721 25.0001 19.5485C25.0001 19.6946 25.0001 19.8408 25.0001 19.9924C24.946 20.144 24.9135 20.3009 24.8431 20.4417C24.5995 20.9506 24.1719 21.2321 23.6359 21.3566ZM18.6663 9.49553C18.6717 6.43147 16.2086 3.9629 13.1337 3.95749C10.0642 3.95207 7.60104 6.41523 7.59563 9.49012C7.59021 12.5596 10.048 15.0065 13.1283 15.0336C16.1274 15.0606 18.715 12.5109 18.6663 9.49553Z" fill="#2E4259"/>
</g>
<defs>
<filter id="filter0_d_366_19137" x="0.428711" y="0.785156" width="28.5713" height="28.5713" filterUnits="userSpaceOnUse" color-interpolation-filters="sRGB">
<feFlood flood-opacity="0" result="BackgroundImageFix"/>
<feColorMatrix in="SourceAlpha" type="matrix" values="0 0 0 0 0 0 0 0 0 0 0 0 0 0 0 0 0 0 127 0" result="hardAlpha"/>
<feOffset dy="4"/>
<feGaussianBlur stdDeviation="2"/>
<feComposite in2="hardAlpha" operator="out"/>
<feColorMatrix type="matrix" values="0 0 0 0 0 0 0 0 0 0 0 0 0 0 0 0 0 0 0.25 0"/>
<feBlend mode="normal" in2="BackgroundImageFix" result="effect1_dropShadow_366_19137"/>
<feBlend mode="normal" in="SourceGraphic" in2="effect1_dropShadow_366_19137" result="shape"/>
</filter>
</defs>
</svg>
