<svg width="22" height="21" viewBox="0 0 22 21" fill="none" xmlns="http://www.w3.org/2000/svg">
<path d="M11.8273 7.52221C11.8273 6.97108 12.3272 7.03997 12.3272 7.03997H13.8983V5.3866H11.5417C9.75638 5.3866 9.75638 7.24664 9.75638 7.24664V8.48667H8.75661V10.0023H9.75638V14.6868H11.8273V10.0023H13.6126L13.8983 8.41778H11.8273C11.8273 8.48667 11.8273 8.07333 11.8273 7.52221Z" fill="#2E4259"/>
<path d="M11.3275 20.0603C5.61446 20.0603 0.972656 15.5824 0.972656 10.0712C0.972656 4.55992 5.61446 0.0820312 11.3275 0.0820312C17.0404 0.0820312 21.6823 4.55992 21.6823 10.0712C21.6823 15.5824 17.0404 20.0603 11.3275 20.0603ZM11.3275 0.770936C5.97152 0.770936 1.68678 4.90437 1.68678 10.0712C1.68678 15.2379 5.97152 19.3714 11.3275 19.3714C16.612 19.3714 20.9681 15.2379 20.9681 10.0712C20.9681 4.90437 16.612 0.770936 11.3275 0.770936Z" fill="#2E4259"/>
</svg>
