<svg width="30" height="24" viewBox="0 0 30 24" fill="none" xmlns="http://www.w3.org/2000/svg">
<g clip-path="url(#clip0_417_20669)">
<path d="M15 24C14.8159 24 14.6779 23.9545 14.5399 23.8178L3.31288 14.2087C3.26687 14.1632 2.43865 13.4345 2.07055 13.0247C0.736196 11.6129 0 9.74573 0 7.78748C0 3.50664 3.54294 0 7.8681 0C11.0429 0 13.7577 1.86717 15 4.59962C16.2423 1.86717 19.0031 0 22.1779 0C26.5031 0 30.046 3.50664 30.046 7.78748C30.046 10.9753 26.8712 13.981 26.7331 14.1176L15.4601 23.8634C15.3221 23.9545 15.184 24 15 24ZM7.8681 1.36622C4.27914 1.36622 1.38037 4.23529 1.38037 7.78748C1.38037 9.42695 1.97853 10.9298 3.08282 12.1139C3.3589 12.3871 4.00307 12.9791 4.23313 13.2068L15 22.4516L25.7669 13.0702C25.7669 13.0702 28.6196 10.3378 28.6196 7.74194C28.6196 4.23529 25.7209 1.36622 22.1779 1.36622C18.635 1.36622 15.6902 4.23529 15.6902 7.78748C15.6902 8.1518 15.3681 8.47059 15 8.47059C14.6319 8.47059 14.3098 8.1518 14.3098 7.78748C14.3098 4.23529 11.411 1.36622 7.8681 1.36622Z" fill="#3377FF"/>
</g>
<defs>
<clipPath id="clip0_417_20669">
<rect width="30" height="24" fill="white"/>
</clipPath>
</defs>
</svg>
