<svg width="22" height="21" viewBox="0 0 22 21" fill="none" xmlns="http://www.w3.org/2000/svg">
<path d="M11.1126 20.0603C5.39962 20.0603 0.757812 15.5824 0.757812 10.0712C0.757812 4.55992 5.39962 0.0820312 11.1126 0.0820312C16.8256 0.0820312 21.4674 4.55992 21.4674 10.0712C21.4674 15.5824 16.8256 20.0603 11.1126 20.0603ZM11.1126 0.770936C5.82809 0.770936 1.47194 4.90437 1.47194 10.0712C1.47194 15.2379 5.82809 19.3714 11.1126 19.3714C16.3971 19.3714 20.7533 15.2379 20.7533 10.0712C20.7533 4.90437 16.3971 0.770936 11.1126 0.770936Z" fill="#2E4259"/>
<path d="M10.0414 12.5512C8.97024 12.4823 8.25612 11.7934 8.11329 11.1734C8.39894 11.2423 8.68459 11.2423 9.04165 11.1734C8.47035 11.0356 7.97046 10.7601 7.68481 10.2778C7.47058 9.93337 7.39917 9.58892 7.39917 9.17558C7.68482 9.31336 7.97047 9.38225 8.32753 9.45114C7.89905 9.17558 7.6134 8.76224 7.47058 8.21111C7.32775 7.72888 7.39917 7.24664 7.68481 6.76441C8.82741 8.07333 10.2557 8.76224 11.9696 8.90002C11.9696 8.83113 11.9696 8.76224 11.9696 8.69335C11.8981 8.21111 12.041 7.79777 12.2552 7.38443C12.6123 6.90219 13.0407 6.55774 13.6835 6.48885C14.3976 6.35107 14.9689 6.55774 15.5402 7.03997C15.5402 7.03997 15.6116 7.10886 15.683 7.03997C16.1115 6.97108 16.54 6.8333 16.897 6.55774C16.7542 7.03997 16.3971 7.38443 15.9687 7.65999C16.3971 7.5911 16.7542 7.52221 17.1113 7.38443C17.0398 7.52221 16.9684 7.5911 16.897 7.65999C16.6828 7.93555 16.3971 8.14222 16.1115 8.34889C16.1115 8.34889 16.1115 8.34889 16.1115 8.41778C16.1115 8.69335 16.1115 9.0378 16.0401 9.31336C15.9687 9.93337 15.7544 10.5534 15.4688 11.1045C15.1831 11.7245 14.8261 12.2068 14.3262 12.689C13.5406 13.4468 12.5409 13.9979 11.4697 14.2046C11.1126 14.2735 10.6841 14.3424 10.3271 14.3424C9.11306 14.3424 8.04188 14.0668 6.97069 13.4468C6.97069 13.4468 6.97069 13.4468 6.89928 13.4468C7.6134 13.5157 8.32753 13.4468 8.97024 13.1712C9.39871 12.9646 9.75577 12.8268 10.0414 12.5512Z" fill="#2E4259"/>
</svg>
