<svg width="21" height="21" viewBox="0 0 21 21" fill="none" xmlns="http://www.w3.org/2000/svg">
<path d="M10.6439 20.0603C4.93087 20.0603 0.289062 15.5824 0.289062 10.0712C0.289062 4.55992 4.93087 0.0820312 10.6439 0.0820312C16.3569 0.0820312 20.9987 4.55992 20.9987 10.0712C20.9987 15.5824 16.3569 20.0603 10.6439 20.0603ZM10.6439 0.770936C5.35934 0.770936 1.00319 4.90437 1.00319 10.0712C1.00319 15.2379 5.28793 19.3714 10.6439 19.3714C15.9284 19.3714 20.2845 15.2379 20.2845 10.0712C20.2845 4.90437 15.9998 0.770936 10.6439 0.770936Z" fill="#2E4259"/>
<path d="M13.4289 12.2068C13.4289 12.4823 13.4289 12.689 13.4289 12.9646C13.3575 12.9646 13.2861 12.9646 13.2147 12.9646C11.5008 12.9646 9.85832 12.9646 8.14442 12.9646C6.57335 12.9646 5.35934 11.8623 5.1451 10.4156C5.00228 8.96891 5.93063 7.65999 7.35888 7.24664C7.57312 7.17775 7.85877 7.17775 8.14442 7.17775C10.0726 7.17775 12.0721 7.17775 14.0002 7.17775C15.1428 7.17775 16.0712 8.00444 16.1426 9.0378C16.2854 10.14 15.5713 11.1045 14.4287 11.3801C14.2859 11.3801 14.1431 11.449 13.9288 11.449C12.3577 11.449 10.7867 11.449 9.21561 11.449C8.50148 11.449 7.93018 10.9667 7.85876 10.2778C7.78735 9.58892 8.21583 8.96891 8.92995 8.83113C9.00136 8.83113 9.14419 8.83113 9.21561 8.83113C10.5724 8.83113 11.8579 8.83113 13.2147 8.83113C13.2861 8.83113 13.2861 8.83113 13.3575 8.83113C13.3575 9.10669 13.3575 9.31336 13.3575 9.58892C13.2861 9.58892 13.1433 9.58892 13.0719 9.58892C11.8579 9.58892 10.6439 9.58892 9.42985 9.58892C9.21561 9.58892 9.00136 9.65781 8.92995 9.79559C8.6443 10.0023 8.78713 10.4845 9.14419 10.6223C9.2156 10.6912 9.35843 10.6912 9.42985 10.6912C10.9295 10.6912 12.4292 10.6912 13.9288 10.6912C14.5001 10.6912 15 10.4845 15.2142 9.93337C15.4285 9.45114 15.4285 8.96891 15.0714 8.55556C14.7858 8.14222 14.3573 8.00444 13.786 8.00444C12.3577 8.00444 10.8581 8.00444 9.42985 8.00444C8.92996 8.00444 8.43007 8.00444 7.93018 8.00444C6.859 8.07333 6.00204 8.96891 5.93063 9.93337C5.85922 11.2423 6.78758 12.069 7.71594 12.2068C7.93018 12.2068 8.07301 12.2757 8.28724 12.2757C9.85832 12.2757 11.4294 12.2757 13.0005 12.2757C13.1433 12.2068 13.2861 12.2068 13.4289 12.2068Z" fill="#2E4259"/>
</svg>
