<svg width="22" height="21" viewBox="0 0 22 21" fill="none" xmlns="http://www.w3.org/2000/svg">
<path d="M10.8939 20.0603C5.18087 20.0603 0.539062 15.5824 0.539062 10.0712C0.539062 4.55992 5.18087 0.0820312 10.8939 0.0820312C16.6069 0.0820312 21.2487 4.55992 21.2487 10.0712C21.2487 15.5824 16.6069 20.0603 10.8939 20.0603ZM10.8939 0.770936C5.60934 0.770936 1.25319 4.90437 1.25319 10.0712C1.25319 15.2379 5.60934 19.3714 10.8939 19.3714C16.1784 19.3714 20.5345 15.2379 20.5345 10.0712C20.5345 4.90437 16.1784 0.770936 10.8939 0.770936Z" fill="#2E4259"/>
<path d="M10.3226 13.929C11.0367 13.929 11.7508 13.929 12.4649 13.929C12.4649 13.5846 12.4649 13.2401 12.4649 12.9646C12.4649 12.2757 12.4649 11.5179 12.5363 10.829C12.6078 10.2778 12.8934 10.0023 13.3933 10.0712C13.8218 10.0712 14.1074 10.3467 14.1074 10.8978C14.1074 11.7245 14.1074 12.5512 14.1074 13.3779C14.1074 13.5846 14.1074 13.7912 14.1074 13.929C14.893 13.929 15.5357 13.929 16.2498 13.929C16.2498 12.6201 16.3212 11.3112 16.2498 10.0023C16.1784 8.90002 15.4642 8.41778 14.3217 8.41778C13.5361 8.41778 12.9648 8.76224 12.4649 9.31336C12.4649 8.96891 12.4649 8.76224 12.3935 8.48667C11.7508 8.48667 11.1081 8.48667 10.394 8.48667C10.3226 10.3467 10.3226 12.1379 10.3226 13.929Z" fill="#2E4259"/>
<path d="M6.75194 8.55556C6.75194 10.4156 6.75194 12.1379 6.75194 13.929C7.46606 13.929 8.18019 13.929 8.8229 13.929C8.8229 12.1379 8.8229 10.3467 8.8229 8.55556C8.18019 8.55556 7.46606 8.55556 6.75194 8.55556Z" fill="#2E4259"/>
<path d="M7.82312 7.65999C8.46584 7.65999 8.89431 7.24665 8.89431 6.69552C8.89431 6.1444 8.39442 5.73105 7.82312 5.73105C7.18041 5.73105 6.75194 6.1444 6.75194 6.69552C6.75194 7.24665 7.18041 7.65999 7.82312 7.65999Z" fill="#2E4259"/>
<path d="M10.3226 13.929C10.3226 12.1379 10.3226 10.3467 10.3226 8.55556C10.9653 8.55556 11.608 8.55556 12.3221 8.55556C12.3221 8.83113 12.3221 9.0378 12.3935 9.38225C12.9648 8.83113 13.5361 8.48667 14.2502 8.48667C15.3928 8.48667 16.107 8.96891 16.1784 10.0712C16.2498 11.3801 16.1784 12.689 16.1784 13.9979C15.4642 13.9979 14.8215 13.9979 14.036 13.9979C14.036 13.7912 14.036 13.5846 14.036 13.4468C14.036 12.6201 14.036 11.7934 14.036 10.9667C14.036 10.4156 13.7504 10.14 13.3219 10.14C12.8934 10.14 12.5363 10.4156 12.4649 10.8978C12.3935 11.5867 12.3935 12.2757 12.3935 13.0334C12.3935 13.3779 12.3935 13.6535 12.3935 13.9979C11.7508 13.929 11.0367 13.929 10.3226 13.929Z" fill="#2E4259"/>
<path d="M6.75194 8.55556C7.46606 8.55556 8.10878 8.55556 8.8229 8.55556C8.8229 10.3467 8.8229 12.1379 8.8229 13.929C8.10878 13.929 7.46606 13.929 6.75194 13.929C6.75194 12.1379 6.75194 10.4156 6.75194 8.55556Z" fill="#2E4259"/>
<path d="M7.82312 7.65999C7.25183 7.65999 6.75194 7.24665 6.75194 6.69552C6.75194 6.1444 7.25183 5.73105 7.82312 5.73105C8.39442 5.73105 8.89431 6.1444 8.89431 6.69552C8.89431 7.24665 8.46584 7.65999 7.82312 7.65999Z" fill="#2E4259"/>
</svg>
