<svg width="20" height="20" viewBox="0 0 20 20" fill="none" xmlns="http://www.w3.org/2000/svg">
<path d="M0.324219 19.027C0.538456 18.3381 0.824106 17.7181 1.03834 17.0292C1.32399 16.1336 1.68106 15.1692 1.96671 14.2736C2.03812 14.1358 1.9667 13.998 1.89529 13.8602C-1.31827 8.34899 1.89529 1.52883 8.3224 0.219907C13.6069 -0.882342 18.8914 2.56219 19.7484 7.72897C20.6053 12.6891 17.1061 17.5114 11.9644 18.3381C9.82207 18.6826 7.75111 18.407 5.82297 17.4425C5.68015 17.3736 5.53732 17.3736 5.32309 17.4425C3.75201 17.9248 2.18094 18.407 0.538458 18.8892C0.538458 18.9581 0.395631 18.9581 0.324219 19.027ZM2.68083 16.7536C2.82365 16.6847 2.96648 16.6847 3.1093 16.6159C3.96625 16.3403 4.75179 16.0647 5.60874 15.8581C5.75156 15.7892 5.89439 15.8581 6.03721 15.9269C7.96535 17.0292 10.0363 17.3736 12.2501 16.8914C16.392 15.9958 19.1057 11.9313 18.3201 7.93564C17.4632 3.73332 13.3213 0.977702 8.89371 1.7355C3.18071 2.69997 0.324218 9.03789 3.60919 13.6536C3.75201 13.8602 3.75201 13.998 3.6806 14.2047C3.32354 14.9625 3.03789 15.8581 2.68083 16.7536Z" fill="#2E4259"/>
<path d="M5.53733 7.17785C5.53733 6.55783 5.82298 6.00671 6.25145 5.52448C6.60852 5.11113 7.1084 5.04224 7.53687 5.11113C7.6797 5.11113 7.82252 5.24891 7.89394 5.3867C8.17958 6.00671 8.46523 6.62672 8.67947 7.24674C8.75088 7.38452 8.67947 7.5223 8.60806 7.59119C8.46523 7.86675 8.251 8.07343 8.10817 8.2801C7.89394 8.48677 7.89394 8.62455 8.03676 8.83122C8.8223 10.0712 9.89349 10.9668 11.2503 11.4491C11.4646 11.518 11.6074 11.518 11.7502 11.3113C11.9644 11.0357 12.2501 10.7602 12.4643 10.4846C12.6072 10.2779 12.75 10.209 12.9642 10.3468C13.6069 10.6224 14.3211 10.9668 14.9638 11.2424C15.0352 11.3113 15.1066 11.518 15.1066 11.5868C15.1066 12.5513 14.3925 13.2402 13.4641 13.4469C12.8928 13.5847 12.3929 13.5158 11.893 13.378C9.60783 12.8269 7.89394 11.518 6.60852 9.65791C6.18004 9.03789 5.75157 8.41788 5.60874 7.66008C5.60874 7.59119 5.60874 7.38452 5.53733 7.17785Z" fill="#2E4259"/>
</svg>
