<svg width="24" height="18" viewBox="0 0 24 18" fill="none" xmlns="http://www.w3.org/2000/svg">
<path d="M0 1.45455C0 0.651222 0.651222 0 1.45455 0H22.5455C23.3488 0 24 0.651222 24 1.45455C24 2.25787 23.3488 2.90909 22.5455 2.90909H1.45455C0.651222 2.90909 0 2.25787 0 1.45455Z" fill="white"/>
<path d="M0 8.72727C0 7.92395 0.651222 7.27273 1.45455 7.27273H22.5455C23.3488 7.27273 24 7.92395 24 8.72727C24 9.53059 23.3488 10.1818 22.5455 10.1818H1.45455C0.651222 10.1818 0 9.53059 0 8.72727Z" fill="white"/>
<path d="M0 16C0 15.1967 0.651222 14.5455 1.45455 14.5455H22.5455C23.3488 14.5455 24 15.1967 24 16C24 16.8033 23.3488 17.4545 22.5455 17.4545H1.45455C0.651222 17.4545 0 16.8033 0 16Z" fill="white"/>
</svg>
