<svg width="52" height="33" viewBox="0 0 52 33" fill="none" xmlns="http://www.w3.org/2000/svg">
<g clip-path="url(#clip0_746_45825)">
<path d="M50.524 3.45597C50.1963 3.25697 49.8029 3.3233 49.4752 3.5223L40.2324 10.6199V1.59865C40.2324 1.06798 39.7736 0.603653 39.2492 0.603653H2.14708C1.03271 0.603653 0.246094 1.66498 0.246094 3.05797V24.9478C0.246094 25.4785 0.704953 25.9428 1.22936 25.9428C1.75378 25.9428 2.21264 25.5448 2.21264 25.0142V3.1243C2.21264 2.85897 2.27819 2.65997 2.27819 2.59364H38.2659V12.6099C38.2659 13.0079 38.4626 13.3396 38.7903 13.4722C39.1181 13.6712 39.5114 13.6049 39.8391 13.4059L49.1474 6.30829V27.1368L39.8391 20.0392L39.7736 19.9729C39.7736 19.9729 39.708 19.9729 39.708 19.9065H39.6425H39.5769H39.5114C39.4458 19.9065 39.4458 19.9065 39.3803 19.9065H39.3147C39.2492 19.9065 39.2492 19.9065 39.1836 19.9065H39.1181H39.0525C39.0525 19.9065 38.987 19.9065 38.987 19.9729C38.987 19.9729 38.9214 19.9729 38.9214 20.0392L38.8559 20.1055L38.7903 20.1719L38.7248 20.2382C38.7248 20.2382 38.7248 20.2382 38.6592 20.3045L38.5937 20.3709C38.5937 20.3709 38.5937 20.4372 38.5281 20.4372C38.5281 20.4372 38.5281 20.5035 38.4626 20.5035V20.5699V20.6362C38.4626 20.7025 38.4626 20.7025 38.4626 20.7689V30.9178H2.27819C2.27819 30.9178 2.21264 30.7188 2.21264 30.5198V28.1318C2.21264 27.5348 1.75378 27.1368 1.22936 27.1368C0.704953 27.1368 0.246094 27.5348 0.246094 28.1318V30.5198C0.246094 31.9128 1.03271 32.9741 2.14708 32.9741H39.2492C39.7736 32.9741 40.2324 32.5098 40.2324 31.9791V22.8252L49.5407 29.8565C49.7374 29.9891 49.934 30.0555 50.1307 30.0555C50.2618 30.0555 50.4585 29.9891 50.5896 29.9228C50.9173 29.7238 51.114 29.3921 51.114 29.0605V4.3183C51.114 3.98663 50.9173 3.65497 50.524 3.45597Z" fill="#3377FF"/>
<path d="M26.6645 16.7226C26.6645 13.1406 23.7802 10.2219 20.2404 10.2219C16.7007 10.2219 13.8164 13.1406 13.8164 16.7226C13.8164 20.3045 16.7007 23.2232 20.2404 23.2232C23.7802 23.2232 26.6645 20.3045 26.6645 16.7226ZM15.7829 16.7226C15.7829 14.2019 17.815 12.2119 20.2404 12.2119C22.7314 12.2119 24.6979 14.2682 24.6979 16.7226C24.6979 19.2432 22.6658 21.2332 20.2404 21.2332C17.7495 21.2332 15.7829 19.2432 15.7829 16.7226Z" fill="#3377FF"/>
</g>
<defs>
<clipPath id="clip0_746_45825">
<rect width="50.8679" height="32.3705" fill="white" transform="translate(0.25 0.603638)"/>
</clipPath>
</defs>
</svg>
