<svg width="86" height="77" viewBox="0 0 86 77" fill="none" xmlns="http://www.w3.org/2000/svg">
<path d="M61.1475 34.2833C70.5426 34.2833 78.1859 26.6401 78.1859 17.2449C78.1859 7.86276 70.5426 0.219482 61.1475 0.219482C51.7524 0.219482 44.1221 7.86276 44.1221 17.2579C44.1221 26.6401 51.7524 34.2833 61.1475 34.2833ZM61.1475 4.76133C68.0381 4.76133 73.6441 10.3673 73.6441 17.2579C73.6441 24.1485 68.0381 29.7545 61.1475 29.7545C54.2569 29.7545 48.6639 24.1355 48.6639 17.2579C48.6639 10.3802 54.2699 4.76133 61.1475 4.76133Z" fill="#FFCC3B"/>
<path d="M85.972 58.7316C84.5575 46.0923 73.8907 36.5544 61.1476 36.5544C51.7784 36.5544 43.5252 41.7192 39.2559 49.4792C40.5795 50.2449 41.8382 51.1013 43.0321 52.0616C46.4579 45.4954 53.3226 41.0963 61.1476 41.0963C71.5679 41.0963 80.3012 48.8953 81.4431 59.2637H49.3907C50.2861 60.6911 51.0517 62.2094 51.6875 63.8055H81.4561C82.7538 63.8055 83.9866 63.2475 84.843 62.2872C85.6995 61.314 86.1147 60.0163 85.972 58.7316Z" fill="#FFCC3B"/>
<path d="M24.8519 47.2601C34.247 47.2601 41.8903 39.6169 41.8903 30.2217C41.8903 20.8266 34.247 13.1963 24.8519 13.1963C15.4568 13.1963 7.81348 20.8396 7.81348 30.2347C7.81348 39.6298 15.4697 47.2601 24.8519 47.2601ZM24.8519 17.7381C31.7425 17.7381 37.3485 23.3441 37.3485 30.2347C37.3485 37.1253 31.7425 42.7313 24.8519 42.7313C17.9613 42.7313 12.3683 37.1253 12.3683 30.2347C12.3683 23.3441 17.9742 17.7381 24.8519 17.7381Z" fill="white"/>
<path d="M24.852 49.5308C12.1089 49.5308 1.44207 59.0686 0.0276081 71.708C-0.115136 72.9926 0.300119 74.2903 1.16956 75.2636C2.039 76.2238 3.27178 76.7818 4.55648 76.7818H45.1476C46.4453 76.7818 47.6781 76.2238 48.5345 75.2636C49.404 74.2903 49.8192 73.0056 49.6765 71.708C48.262 59.0686 37.5952 49.5308 24.852 49.5308ZM4.55648 72.24L4.5435 72.214C5.69843 61.8716 14.4318 54.0726 24.852 54.0726C35.2723 54.0726 44.0057 61.8716 45.1476 72.24H4.55648Z" fill="white"/>
</svg>
