<svg width="39" height="33" viewBox="0 0 39 33" fill="none" xmlns="http://www.w3.org/2000/svg">
<path d="M21.7924 20.8653C21.1504 20.3438 20.3059 20.4132 19.6548 21.0511C17.754 22.9154 15.8577 24.7819 13.9614 26.6484C13.6199 26.9841 13.2808 27.3198 12.9393 27.6555V1.73896C12.9393 0.783316 12.1425 0 11.1705 0C10.1962 0 9.4017 0.783316 9.4017 1.73896V27.6555C7.20949 25.4981 3.87222 22.2171 3.02311 21.3823C2.83189 21.1943 2.64295 20.9996 2.42896 20.834C1.87351 20.402 1.1109 20.4199 0.564555 20.8608C-0.16846 21.4517 -0.1935 22.4319 0.523579 23.1414C2.10115 24.7013 8.33405 30.8224 9.91618 32.3778C10.7607 33.2081 11.5848 33.2059 12.4316 32.3733C15.5276 29.3296 18.6258 26.2859 21.7195 23.2399C21.8425 23.119 21.9631 22.9937 22.0633 22.8572C22.5186 22.2305 22.3956 21.3554 21.7924 20.8653Z" fill="#3377FF"/>
<path d="M17.2076 12.1325C17.8496 12.6539 18.6941 12.5845 19.3452 11.9467C21.246 10.0824 23.1423 8.21587 25.0386 6.34934C25.3801 6.01363 25.7192 5.67792 26.0607 5.34222V31.261C26.0607 32.2167 26.8575 33 27.8295 33C28.8015 33 29.5983 32.2167 29.5983 31.261V5.34446C31.7905 7.50193 35.1278 10.7829 35.9769 11.6177C36.1681 11.8057 36.3571 12.0004 36.571 12.166C37.1265 12.598 37.8891 12.5801 38.4354 12.1392C39.1662 11.5483 39.1935 10.5681 38.4764 9.86083C36.8988 8.30092 30.6659 2.17986 29.0838 0.624415C28.2393 -0.2059 27.4152 -0.203662 26.5683 0.628891C23.4701 3.6704 20.3742 6.71414 17.2782 9.76012C17.1553 9.88098 17.0346 10.0063 16.9345 10.1428C16.4792 10.7672 16.6044 11.6446 17.2076 12.1325Z" fill="#3377FF"/>
</svg>
