<svg width="23" height="23" viewBox="0 0 23 23" fill="none" xmlns="http://www.w3.org/2000/svg">
<rect x="0.949578" y="0.974725" width="20.7784" height="20.7784" rx="1.73153" stroke="#FF4141" stroke-width="0.692613"/>
<path d="M12.042 13.1031C12.042 12.5671 12.0395 12.0311 12.042 11.4925C12.0444 11.2416 12.2526 11.0858 12.4463 11.1862C12.5746 11.2522 12.6181 11.371 12.6181 11.5215C12.6157 12.1315 12.6181 12.744 12.6181 13.354C12.6181 13.7976 12.6181 14.2438 12.6181 14.6874C12.6181 14.9092 12.5019 15.0518 12.33 15.0491C12.1557 15.0465 12.042 14.9039 12.042 14.6847C12.042 14.1593 12.042 13.6312 12.042 13.1031Z" fill="#FF4141"/>
<path d="M10.0568 13.1005C10.0568 12.5645 10.0544 12.0285 10.0568 11.4925C10.0592 11.239 10.2771 11.0832 10.4732 11.1967C10.5797 11.2575 10.6305 11.3578 10.6305 11.4872C10.6305 12.5645 10.6305 13.6418 10.6305 14.7217C10.6305 14.9171 10.5046 15.057 10.34 15.0544C10.1754 15.0518 10.0568 14.9118 10.0568 14.7138C10.0544 14.1751 10.0568 13.6391 10.0568 13.1005Z" fill="#FF4141"/>
<path d="M15.148 7.80644C15.148 7.52391 15.0488 7.41301 14.7922 7.41301C14.2184 7.41301 13.647 7.41301 13.0733 7.41301C13.0345 7.41301 12.9958 7.41301 12.9401 7.41301C12.9401 7.35228 12.9401 7.30476 12.9401 7.25723C12.9401 7.00639 12.9426 6.75555 12.9401 6.50471C12.9377 6.25123 12.7707 6.11657 12.5044 6.1905C11.7369 6.40173 10.9356 6.37533 10.1633 6.18522C9.90183 6.12185 9.73721 6.25387 9.73479 6.49943C9.73237 6.75555 9.73479 7.00903 9.73237 7.26515C9.73237 7.31004 9.72752 7.35757 9.7251 7.41037C9.66942 7.41037 9.63069 7.41037 9.58953 7.41037C9.01576 7.41037 8.44442 7.41037 7.87065 7.41037C7.6334 7.41301 7.5293 7.52655 7.5293 7.7906C7.5293 8.3266 7.5293 8.86525 7.5293 9.40126C7.5293 9.62305 7.63824 9.74451 7.8416 9.74979C7.94086 9.75243 8.04254 9.74979 8.15148 9.74979C8.15632 9.82636 8.16117 9.89237 8.16359 9.95575C8.1999 10.8957 8.23379 11.8357 8.27011 12.7757C8.32337 14.1382 8.37663 15.5006 8.42989 16.8631C8.442 17.1483 8.53399 17.2486 8.79304 17.2512C9.96236 17.2512 11.1317 17.2512 12.3034 17.2512C12.8433 17.2512 13.3856 17.2512 13.9255 17.2512C14.1216 17.2512 14.2305 17.1351 14.2402 16.9186C14.245 16.8077 14.2523 16.6994 14.2571 16.5885C14.2596 16.5093 14.262 16.4301 14.2668 16.3509C14.2717 16.2162 14.1966 16.0921 14.0804 16.0446C13.8964 15.968 13.6979 16.1132 13.6906 16.3297C13.6882 16.3799 13.6882 16.4301 13.6858 16.4802C13.6834 16.5938 13.6543 16.6281 13.5478 16.6281C12.5673 16.6228 11.5868 16.6255 10.6063 16.6255C10.1173 16.6255 9.63069 16.6255 9.14165 16.6255C9.09808 16.6255 9.0545 16.6255 8.9964 16.6255C8.90924 14.3309 8.81967 12.0522 8.73251 9.76035H13.94C13.9158 10.3967 13.894 11.0251 13.8698 11.6535C13.8335 12.6094 13.7971 13.5652 13.7584 14.5184C13.7512 14.7191 13.9158 14.8749 14.0949 14.8405C14.2281 14.8141 14.3273 14.6927 14.3322 14.5448C14.383 13.2272 14.4314 11.907 14.4823 10.5894C14.492 10.3122 14.5065 10.0376 14.5186 9.74715C14.6227 9.74715 14.7147 9.74715 14.8043 9.74715C15.0391 9.74451 15.1456 9.63097 15.1456 9.37485C15.148 8.85469 15.148 8.32924 15.148 7.80644ZM10.3158 6.80572C10.9961 6.80572 11.6716 6.80572 12.3567 6.80572C12.3567 7.00111 12.3567 7.19914 12.3567 7.40245C11.6812 7.40245 11.0009 7.40245 10.3158 7.40245C10.3158 7.19914 10.3158 7.00639 10.3158 6.80572ZM14.5646 9.11081C12.4148 9.11081 10.265 9.11081 8.11033 9.11081C8.11033 8.75963 8.11033 8.40846 8.11033 8.04936C10.2626 8.04936 12.4099 8.04936 14.5646 8.04936C14.5646 8.40053 14.5646 8.75171 14.5646 9.11081Z" fill="#FF4141"/>
</svg>
