<svg width="20" height="11" viewBox="0 0 20 11" fill="none" xmlns="http://www.w3.org/2000/svg">
<path d="M18.7945 0.949454C18.6722 0.883213 18.5254 0.905293 18.403 0.971534L14.928 3.31205V0.331205C14.928 0.154562 14.7567 0 14.5609 0H0.709689C0.318135 0 0 0.353285 0 0.816972V8.10348C0 8.28012 0.171305 8.43468 0.367081 8.43468C0.562858 8.43468 0.734162 8.28012 0.734162 8.10348V0.816972C0.734162 0.750731 0.758636 0.68449 0.758636 0.662409H14.1693V3.99654C14.1693 4.12902 14.2428 4.23942 14.3651 4.28358C14.4875 4.34982 14.6343 4.32774 14.7567 4.2615L18.2317 1.92099V8.83213L14.8056 6.46953L14.7811 6.44745C14.7811 6.44745 14.7567 6.44745 14.7567 6.42537H14.6832C14.6588 6.42537 14.6588 6.42537 14.6343 6.42537H14.6098C14.5854 6.42537 14.5854 6.42537 14.5609 6.42537H14.5119C14.5119 6.42537 14.4875 6.42537 14.4875 6.44745C14.4875 6.44745 14.463 6.44745 14.463 6.46953L14.3896 6.53577C14.3896 6.53577 14.3896 6.53577 14.3651 6.55785L14.3406 6.57993C14.3406 6.57993 14.3406 6.60202 14.3162 6.60202C14.3162 6.60202 14.3162 6.62409 14.2917 6.62409V6.66826C14.2917 6.69034 14.2917 6.69034 14.2917 6.71242V10.0907H0.880996C0.856524 10.0686 0.856523 10.0024 0.856523 9.93614V9.14125C0.856523 8.96461 0.685218 8.81005 0.489441 8.81005C0.293665 8.81005 0.12236 8.96461 0.12236 9.14125V9.93614C0.12236 10.3998 0.416024 10.7531 0.832049 10.7531H14.6832C14.879 10.7531 15.0503 10.5986 15.0503 10.4219V7.39691L18.4275 9.7595C18.5009 9.80366 18.5743 9.82574 18.6477 9.82574C18.6967 9.82574 18.7701 9.80366 18.819 9.78158C18.9414 9.71534 19.0148 9.60494 19.0148 9.49454V1.2365C19.0148 1.10402 18.9169 0.993614 18.7945 0.949454Z" fill="#3377FF"/>
<path d="M9.88671 5.36552C9.88671 4.17318 8.80995 3.20165 7.48845 3.20165C6.16696 3.20165 5.09019 4.17318 5.09019 5.36552C5.09019 6.55785 6.16696 7.52939 7.48845 7.52939C8.80995 7.52939 9.88671 6.55785 9.88671 5.36552ZM5.82435 5.36552C5.82435 4.52646 6.58299 3.86406 7.48845 3.86406C8.41839 3.86406 9.15255 4.54854 9.15255 5.36552C9.15255 6.20457 8.39392 6.86698 7.48845 6.86698C6.55851 6.86698 5.82435 6.18249 5.82435 5.36552Z" fill="#3377FF"/>
</svg>
